<?xml version="1.0" encoding="UTF-8"?>
<svg width="23px" height="23px" viewBox="0 0 23 23" version="1.1" xmlns="http://www.w3.org/2000/svg" xmlns:xlink="http://www.w3.org/1999/xlink">
    <title>logoWABlack</title>
    <defs>
        <polygon id="path-1" points="0 0 23 0 23 23 0 23"></polygon>
    </defs>
    <g id="Page-1" stroke="none" stroke-width="1" fill="none" fill-rule="evenodd">
        <g id="Artboard" transform="translate(-321.000000, -535.000000)">
            <g id="logoWABlack" transform="translate(321.000000, 535.000000)">
                <mask id="mask-2" fill="white">
                    <use xlink:href="#path-1"></use>
                </mask>
                <g id="Clip-2"></g>
                <path d="M11.5,0 C5.15877222,0 0,5.15937656 0,11.501917 C0,13.7334167 0.639911111,15.8847864 1.85405556,17.7530811 L0.0621638889,21.935242 C-0.0613972222,22.2227899 0.00300277778,22.5575596 0.224633333,22.7791632 C0.371322222,22.9259404 0.567525,23.003834 0.766666667,23.003834 C0.868505556,23.003834 0.971302778,22.9836417 1.06886111,22.9416597 L5.25038889,21.1490221 C7.11786111,22.3643274 9.26887222,23.003834 11.5,23.003834 C17.8414833,23.003834 23,17.8444574 23,11.501917 C23,5.15937656 17.8414833,0 11.5,0 Z M17.4027583,15.6189643 C17.4027583,15.6189643 16.4466611,16.8455159 15.755575,17.132297 C13.9991417,17.8594099 11.5194861,17.132297 8.69463889,14.3077457 C5.87055833,11.4824276 5.14331111,9.00235873 5.87055833,7.24563261 C6.15729167,6.5536645 7.38363889,5.5981747 7.38363889,5.5981747 C7.71605278,5.33912597 8.23265833,5.37133133 8.53063611,5.66935878 L9.91798333,7.05693727 C10.2159611,7.35496472 10.2159611,7.84315719 9.91798333,8.14118464 L9.04724167,9.01130466 C9.04724167,9.01130466 8.69463889,10.0701839 10.8126833,12.1893482 C12.9307917,14.3077457 13.9901972,13.9550842 13.9901972,13.9550842 L14.8601722,13.0841974 C15.15815,12.7861699 15.6462611,12.7861699 15.9442389,13.0841974 L17.3315861,14.4717759 C17.6295639,14.7698033 17.6617639,15.2857282 17.4027583,15.6189643 Z" id="Fill-1" fill="#000000" mask="url(#mask-2)"></path>
            </g>
        </g>
    </g>
</svg>