<svg width="176" height="180" viewBox="0 0 176 180" fill="none" xmlns="http://www.w3.org/2000/svg">
<path d="M155.132 69.2475C155.132 68.205 154.718 67.2052 153.981 66.468C153.244 65.7308 152.244 65.3167 151.202 65.3167C150.159 65.3167 149.159 65.7308 148.422 66.468C147.685 67.2052 147.271 68.205 147.271 69.2475C147.271 70.2901 147.685 71.2899 148.422 72.0271C149.159 72.7643 150.159 73.1784 151.202 73.1784C152.244 73.1784 153.244 72.7643 153.981 72.0271C154.718 71.2899 155.132 70.2901 155.132 69.2475V69.2475Z" fill="#BFF007"/>
<path d="M151.201 73.6355C150.622 73.648 150.045 73.543 149.507 73.3269C148.969 73.1108 148.481 72.7881 148.071 72.3781C147.661 71.9681 147.338 71.4794 147.122 70.9414C146.906 70.4034 146.801 69.8272 146.813 69.2476C146.813 68.0838 147.276 66.9677 148.099 66.1448C148.921 65.3219 150.038 64.8596 151.201 64.8596C152.365 64.8596 153.481 65.3219 154.304 66.1448C155.127 66.9677 155.589 68.0838 155.589 69.2476C155.602 69.8272 155.497 70.4034 155.281 70.9414C155.065 71.4794 154.742 71.9681 154.332 72.3781C153.922 72.7881 153.433 73.1108 152.895 73.3269C152.357 73.543 151.781 73.648 151.201 73.6355V73.6355ZM151.201 65.7738C150.514 65.7738 149.843 65.9775 149.271 66.3592C148.7 66.7409 148.255 67.2835 147.992 67.9182C147.729 68.553 147.66 69.2514 147.794 69.9253C147.928 70.5991 148.259 71.2181 148.745 71.7039C149.231 72.1897 149.85 72.5206 150.524 72.6546C151.197 72.7887 151.896 72.7199 152.531 72.4569C153.165 72.194 153.708 71.7488 154.09 71.1775C154.471 70.6063 154.675 69.9346 154.675 69.2476C154.675 68.3263 154.309 67.4427 153.658 66.7912C153.006 66.1398 152.123 65.7738 151.201 65.7738V65.7738Z" fill="#BFF007"/>
<path d="M32.8184 137.352C32.8365 135.287 32.2408 133.263 31.1067 131.538C29.9727 129.812 28.3515 128.462 26.4489 127.659C24.5463 126.856 22.4481 126.637 20.4205 127.029C18.393 127.42 16.5275 128.406 15.0609 129.859C13.5943 131.313 12.5926 133.17 12.1831 135.194C11.7735 137.218 11.9744 139.318 12.7605 141.227C13.5465 143.137 14.8821 144.77 16.5978 145.919C18.3135 147.069 20.332 147.682 22.397 147.682C23.7612 147.694 25.1144 147.436 26.3782 146.922C27.6421 146.409 28.7917 145.65 29.7606 144.689C30.7295 143.729 31.4986 142.586 32.0235 141.327C32.5483 140.067 32.8185 138.716 32.8184 137.352V137.352Z" fill="#BFF007"/>
<path d="M22.3966 148.139C20.2672 148.121 18.1906 147.473 16.4288 146.277C14.6669 145.081 13.2986 143.39 12.4961 141.417C11.6937 139.445 11.493 137.279 11.9195 135.192C12.346 133.106 13.3805 131.192 14.8927 129.693C16.4049 128.194 18.3271 127.175 20.417 126.766C22.507 126.357 24.6712 126.576 26.6369 127.395C28.6027 128.215 30.282 129.597 31.4633 131.369C32.6446 133.141 33.2751 135.223 33.2751 137.352C33.2752 138.777 32.9932 140.187 32.4454 141.502C31.8975 142.816 31.0948 144.01 30.0834 145.012C29.072 146.015 27.8721 146.808 26.5528 147.345C25.2334 147.881 23.8209 148.152 22.3966 148.139V148.139ZM22.3966 127.479C20.448 127.497 18.5482 128.092 16.9367 129.188C15.3252 130.283 14.074 131.832 13.3407 133.637C12.6074 135.443 12.4249 137.425 12.8161 139.334C13.2073 141.243 14.1548 142.994 15.5391 144.365C16.9234 145.737 18.6827 146.668 20.5953 147.042C22.5079 147.415 24.4884 147.215 26.2871 146.465C28.0858 145.715 29.6224 144.449 30.7032 142.828C31.7841 141.206 32.3609 139.301 32.361 137.352C32.361 136.048 32.1027 134.757 31.6008 133.553C31.0989 132.349 30.3635 131.257 29.437 130.339C28.5105 129.421 27.4113 128.695 26.2029 128.205C24.9945 127.714 23.7008 127.467 22.3966 127.479V127.479Z" fill="#BFF007"/>
<path d="M106.682 164.411H157.509C159.973 164.524 162.433 164.12 164.731 163.223C165.727 162.777 166.608 162.109 167.306 161.269C168.003 160.429 168.498 159.44 168.753 158.378C168.741 157.949 168.772 157.521 168.845 157.098C169.119 154.081 169.576 150.973 169.942 147.865L174.055 114.407L175.244 104.077C175.975 98.5006 170.399 95.2097 165.462 95.3925L142.791 96.2152L109.241 97.4951L100.923 97.7693C98.4557 97.9188 96.1368 98.9966 94.4321 100.786C92.9794 102.341 91.8596 104.176 91.1411 106.18C90.5245 107.559 90.2127 109.056 90.227 110.568C90.5012 113.31 91.0497 116.052 91.5068 118.795L94.0664 135.25L96.5347 151.43L97.266 156.641L97.5402 158.104C97.6316 158.652 97.5402 158.561 97.6317 159.201C98.2716 163.406 103.208 164.411 106.682 164.411C107.87 164.411 109.516 164.046 110.156 162.857C110.796 161.669 109.607 161.029 108.602 161.029C107.596 161.029 105.311 160.938 104.031 159.932C103.646 159.55 103.342 159.094 103.138 158.591C102.933 158.088 102.833 157.549 102.842 157.007C102.765 156.178 102.643 155.354 102.477 154.539L100.466 141.557L95.8948 111.573C95.8033 110.75 95.6205 109.928 95.5291 109.196C95.5291 109.653 95.6205 108.556 95.6205 108.374C95.7978 107.463 96.0737 106.574 96.4432 105.722C97.1022 104.152 98.1013 102.747 99.3686 101.609L99.7342 101.243C99.3686 101.517 99.8256 101.152 99.9171 101.243C100.008 101.335 99.46 101.243 99.5514 101.335H100.831L104.396 101.152L134.198 100.055L162.354 99.0491H164.639C165.028 99.1542 165.426 99.2155 165.828 99.232C166.664 99.4486 167.443 99.8479 168.106 100.401C168.77 100.954 169.303 101.648 169.667 102.432C170.042 103.393 170.106 104.448 169.85 105.448L169.393 109.745L165.462 141.192L163.908 154.447C163.725 155.544 163.634 156.55 163.451 157.647V158.652C163.399 159.294 163.143 159.903 162.72 160.389C162.903 160.206 162.628 160.481 162.537 160.481C162.445 160.481 162.811 160.389 162.354 160.572H162.171C162.08 160.663 161.348 160.846 161.806 160.755C159.52 161.212 156.778 160.938 154.309 160.938H108.602C107.413 160.938 105.768 161.212 105.128 162.4C104.488 163.589 105.676 164.411 106.682 164.411Z" fill="#012B27"/>
<path d="M158.88 163.406L161.988 171.085C162.445 172.273 162.994 173.553 163.451 174.833C164.102 176.041 164.447 177.391 164.456 178.764L169.21 177.118C164.182 174.284 159.246 171.268 154.492 168.068L147.545 163.314C146.448 162.492 145.442 161.486 144.071 161.303C142.699 161.12 140.231 161.669 139.683 163.314C139.134 164.96 141.328 164.594 141.968 164.503C142.608 164.411 144.528 163.863 144.985 162.674V162.492L143.431 163.954H143.614L141.511 164.32C141.054 164.32 141.054 164.229 141.42 164.503L142.151 165.051L143.705 166.148L146.539 168.159C148.55 169.531 150.561 170.902 152.664 172.182C156.686 174.833 160.8 177.301 165.005 179.769C165.445 179.936 165.915 180.014 166.385 179.998C166.856 179.982 167.319 179.873 167.747 179.678C168.387 179.495 169.667 178.947 169.759 178.124C169.941 175.29 168.479 172.639 167.473 170.079L164.182 162.035C163.817 160.938 162.08 161.12 161.165 161.303C160.251 161.486 158.514 162.309 158.88 163.406V163.406Z" fill="#012B27"/>
<path d="M150.836 167.063C151.323 166.153 152.141 165.466 153.121 165.143L151.201 164.777C151.294 166.462 151.477 168.14 151.75 169.805C151.773 170.137 151.879 170.457 152.057 170.738C152.235 171.019 152.48 171.252 152.77 171.415C153.06 171.578 153.385 171.666 153.718 171.673C154.05 171.679 154.379 171.603 154.675 171.451C156.046 170.994 156.138 169.439 156.686 168.251C157.325 167.03 158.194 165.943 159.246 165.051L157.052 164.686C156.9 167.19 157.022 169.704 157.417 172.182C157.509 173.096 159.154 172.639 159.611 172.365C160.716 171.642 161.601 170.63 162.171 169.439L159.703 169.897L161.805 173.645C162.022 174.182 162.331 174.677 162.72 175.107C162.992 175.342 163.322 175.5 163.675 175.565C164.029 175.629 164.393 175.597 164.731 175.473C165.188 175.381 166.011 174.924 165.828 174.285C165.645 173.645 164.731 173.827 164.365 173.919H165.096C164.822 173.827 164.548 173.096 164.456 172.913L163.634 171.542L162.171 168.8C161.714 168.068 159.977 168.617 159.703 169.257C159.275 170.097 158.647 170.819 157.875 171.359H160.069C159.717 169.03 159.594 166.673 159.703 164.32C159.794 163.315 158.057 163.497 157.509 163.955C155.748 165.356 154.417 167.225 153.669 169.348C153.578 169.531 153.304 169.897 153.395 170.079C153.487 170.262 153.487 170.354 154.035 170.079C154.584 169.805 154.949 169.988 154.675 169.714C154.51 169.176 154.387 168.626 154.309 168.068C154.127 166.697 153.944 165.326 153.852 163.955C153.761 162.583 152.298 163.589 151.933 163.68C150.4 164.239 149.13 165.346 148.367 166.788C147.727 168.068 150.47 167.885 150.836 166.971V167.063Z" fill="#012B27"/>
<path d="M106.865 115.504C107.769 113.675 109.046 112.056 110.613 110.75C111.329 110.099 112.128 109.546 112.99 109.105C113.8 108.647 114.658 108.279 115.549 108.008C115.915 107.917 116.829 107.551 116.646 107.002C116.463 106.454 115.549 106.637 115.184 106.728C112.889 107.394 110.752 108.513 108.899 110.021C107.046 111.528 105.515 113.393 104.397 115.504C103.848 116.601 106.408 116.235 106.865 115.504Z" fill="#012B27"/>
<path d="M141.146 107.642C142.443 107.486 143.759 107.592 145.015 107.953C146.271 108.314 147.442 108.923 148.459 109.745C150.63 111.472 152.433 113.616 153.761 116.052C154.401 116.967 156.961 115.961 156.229 114.864C154.632 112.11 152.485 109.714 149.922 107.825C147.195 106.047 143.887 105.392 140.689 105.997C140.232 106.088 139.5 106.545 139.592 107.185C139.683 107.825 140.689 107.734 141.146 107.642Z" fill="#012B27"/>
<path d="M107.779 128.759C107.579 126.605 107.796 124.432 108.419 122.36C108.788 120.817 109.696 119.456 110.979 118.521H111.436C111.897 118.607 112.334 118.795 112.715 119.069C113.518 119.641 114.175 120.392 114.635 121.263C115.532 123.252 116.295 125.298 116.921 127.388C117.195 128.211 119.846 127.388 119.572 126.657C119.297 125.925 118.292 122.817 117.469 120.898C116.733 119.265 115.388 117.986 113.721 117.332C112.784 117.128 111.812 117.136 110.879 117.358C109.945 117.579 109.073 118.008 108.328 118.612C107.12 119.765 106.237 121.215 105.768 122.817C105.144 125.014 104.927 127.307 105.128 129.582C105.219 130.313 107.87 129.765 107.779 128.851V128.759Z" fill="#012B27"/>
<path d="M139.409 126.2C138.769 124.19 138.866 122.019 139.683 120.075C139.986 119.389 140.453 118.789 141.043 118.327C141.633 117.865 142.327 117.554 143.065 117.424C144.985 117.424 146.356 119.069 147.088 120.623C148.212 122.699 148.955 124.959 149.282 127.297C149.373 128.028 152.024 127.388 151.933 126.565C151.601 124.41 150.954 122.316 150.013 120.349C149.19 118.795 148.093 117.149 146.356 116.51C142.882 115.23 138.494 117.332 137.032 120.532C136.163 122.56 136.066 124.836 136.758 126.931C136.94 127.662 139.591 126.931 139.409 126.2V126.2Z" fill="#012B27"/>
<path d="M119.115 141.009C120.984 141.962 122.628 143.303 123.936 144.942C125.245 146.582 126.188 148.482 126.702 150.516C127.081 151.587 127.049 152.76 126.611 153.807C126.4 154.156 126.105 154.447 125.755 154.655C125.404 154.862 125.007 154.979 124.599 154.996C123.716 155.006 122.845 154.784 122.074 154.35C121.304 153.917 120.661 153.288 120.212 152.528C119.66 151.553 119.425 150.431 119.539 149.317C119.654 148.203 120.113 147.153 120.851 146.311C121.217 145.946 121.126 145.58 120.577 145.397C120.237 145.33 119.885 145.345 119.551 145.44C119.218 145.536 118.911 145.709 118.657 145.946C117.824 146.816 117.253 147.904 117.01 149.085C116.767 150.265 116.863 151.49 117.286 152.619C117.779 153.723 118.571 154.668 119.573 155.347C120.574 156.025 121.745 156.41 122.954 156.458C125.331 156.641 128.713 155.636 129.445 152.985C129.724 151.675 129.629 150.312 129.17 149.054C128.764 147.849 128.243 146.686 127.616 145.58C126.045 143.093 123.835 141.072 121.217 139.729C120.914 139.617 120.587 139.584 120.268 139.632C119.948 139.68 119.646 139.808 119.389 140.004C119.023 140.186 118.566 140.735 119.115 141.009V141.009Z" fill="#012B27"/>
<path d="M113.812 125.742C114.635 122.452 113.904 119.435 112.258 118.978C110.613 118.521 108.602 120.897 107.779 124.188C106.956 127.479 107.596 130.496 109.333 130.953C111.07 131.41 112.99 129.033 113.812 125.742Z" fill="#012B27"/>
<path d="M109.699 131.41H109.15C107.23 130.953 106.408 127.754 107.322 124.189C107.691 122.662 108.376 121.229 109.333 119.983C109.676 119.515 110.134 119.143 110.662 118.903C111.19 118.663 111.771 118.563 112.35 118.612C114.269 119.161 115.092 122.36 114.269 125.925C113.447 129.125 111.527 131.41 109.699 131.41ZM111.893 119.435C111.528 119.481 111.178 119.603 110.863 119.791C110.549 119.98 110.276 120.232 110.064 120.532C109.168 121.62 108.542 122.904 108.236 124.28C107.413 127.571 108.144 130.131 109.424 130.496C110.704 130.862 112.532 128.942 113.355 125.56C114.178 122.269 113.355 119.709 112.167 119.435H111.893Z" fill="#012B27"/>
<path d="M143.98 124.645C144.802 121.354 144.163 118.338 142.517 117.972C140.872 117.606 138.86 119.8 138.038 123.091C137.215 126.382 137.855 129.399 139.5 129.856C141.146 130.313 143.157 127.936 143.98 124.645Z" fill="#012B27"/>
<path d="M139.957 130.313H139.408C138.85 130.117 138.362 129.761 138.004 129.29C137.647 128.819 137.436 128.253 137.397 127.662C137.095 126.115 137.158 124.519 137.58 123C138.494 119.435 140.688 116.967 142.608 117.515C144.528 118.064 145.35 121.172 144.436 124.737C143.613 128.028 141.694 130.313 139.957 130.313ZM142.151 118.338C140.871 118.338 139.226 120.166 138.403 123.274C138.056 124.651 138.024 126.089 138.311 127.479C138.335 127.884 138.466 128.275 138.691 128.613C138.916 128.95 139.227 129.221 139.591 129.399C140.871 129.673 142.791 127.845 143.613 124.554C144.436 121.263 143.613 118.703 142.425 118.338H142.151Z" fill="#012B27"/>
<path d="M142.334 122.726C143.339 121.263 143.522 119.618 142.791 119.069C142.06 118.521 140.597 119.435 139.591 120.897C138.586 122.36 138.403 124.006 139.134 124.463C139.866 124.92 141.328 124.188 142.334 122.726Z" fill="white"/>
<path d="M111.801 122.817C112.807 121.355 113.081 119.709 112.258 119.161C111.435 118.612 110.156 119.526 109.15 120.989C108.144 122.452 107.87 124.097 108.693 124.554C109.516 125.011 110.796 124.28 111.801 122.817Z" fill="white"/>
<path d="M152.938 138.084C152.938 138.084 151.11 137.901 148.642 137.901C146.15 137.888 143.665 138.164 141.237 138.724C139.226 139.363 140.049 140.003 142.151 140.369C145.041 140.711 147.964 140.65 150.836 140.186C152.728 139.786 154.664 139.632 156.595 139.729C157.414 139.803 158.238 139.644 158.972 139.272C160.069 138.815 158.515 138.449 156.778 138.266C155.041 138.084 152.938 138.084 152.938 138.084Z" fill="#012B27"/>
<path d="M152.39 147.774C152.39 147.774 147.088 146.677 143.98 147.134C140.872 147.591 145.717 150.425 150.653 149.694C155.589 148.962 155.224 150.059 156.778 149.145C158.332 148.231 152.39 147.774 152.39 147.774Z" fill="#012B27"/>
<path d="M106.408 139.181C105.407 139.056 104.399 138.995 103.391 138.998C101.591 138.982 99.7997 139.26 98.0888 139.821C96.6262 140.461 97.2661 141.101 98.8201 141.466C100.846 141.902 102.948 141.839 104.945 141.283C106.286 140.929 107.672 140.775 109.059 140.826C109.632 140.874 110.205 140.747 110.704 140.461C111.527 140.004 110.43 139.638 109.15 139.455C108.246 139.281 107.328 139.189 106.408 139.181Z" fill="#012B27"/>
<path d="M106.133 148.505C106.133 148.505 102.385 147.408 100.1 147.865C97.8146 148.322 101.197 151.156 104.762 150.516C108.327 149.876 107.962 150.79 109.15 149.876C110.339 148.962 106.133 148.505 106.133 148.505Z" fill="#012B27"/>
<path d="M84.8339 99.5062C87.7433 99.5062 90.5335 98.3504 92.5908 96.2932C94.648 94.2359 95.8038 91.4457 95.8038 88.5363L104.58 26.4649C104.58 20.4315 100.009 15.3122 93.9755 15.3122L22.3969 14.3066C16.3634 14.3066 11.9755 18.5118 11.9755 24.5452L0 88.5363C0 91.4457 1.15575 94.2359 3.21301 96.2932C5.27026 98.3504 8.0605 99.5062 10.9699 99.5062H84.8339Z" fill="#BFF007"/>
<path d="M6.76502 97.1294V97.4951L2.5599 110.568C1.90247 112.322 1.56199 114.179 1.55432 116.052C9.36955 110.268 16.8474 104.042 23.9512 97.4036L6.76502 97.1294Z" fill="#BFF007"/>
<path d="M24.0423 97.4035H24.865C24.865 97.0379 24.3165 97.1293 24.0423 97.4035Z" fill="#BFF007"/>
<path d="M40.5888 38.0747C40.8482 37.0669 41.4251 36.1694 42.2343 35.515C43.057 34.7837 43.7884 33.961 44.6111 33.321C45.3867 32.6631 46.2925 32.1765 47.2692 31.8929C48.2459 31.6093 49.2715 31.5353 50.2789 31.6756C52.3137 32.0127 54.1477 33.1018 55.4175 34.7272C56.6873 36.3525 57.3003 38.3955 57.1351 40.4515C57.0437 41.5485 59.6947 41.0914 59.7861 40.0858C59.8602 38.8248 59.6848 37.5616 59.2697 36.3686C58.8547 35.1756 58.2082 34.0762 57.3674 33.1336C56.5267 32.1909 55.5081 31.4234 54.3701 30.8752C53.2322 30.3269 51.9972 30.0087 50.736 29.9387C48.0038 29.7971 45.3115 30.6405 43.1484 32.3155C42.0218 33.1571 40.9529 34.0733 39.9489 35.0579C38.9774 35.9399 38.2794 37.0821 37.9377 38.3489C37.7549 39.4459 40.406 39.0802 40.5888 38.0747V38.0747Z" fill="#012B27"/>
<path d="M76.149 38.1662C77.3873 36.6373 78.7984 35.2569 80.3541 34.0525C81.7253 32.9555 83.6451 31.4928 85.5648 31.7671C87.4845 32.0413 88.3987 34.0524 89.13 35.5151C89.9521 37.5214 90.4162 39.6563 90.5012 41.8228C90.5012 43.1026 93.1523 42.6455 93.1523 41.5485C93.177 38.9766 92.5812 36.4366 91.4154 34.1439C90.4098 32.0413 88.8558 30.213 86.4789 29.9387C84.1021 29.6645 81.4511 30.9443 79.4399 32.3155C77.3368 33.7014 75.4824 35.4321 73.955 37.4348C72.9494 38.7147 75.509 39.0803 76.149 38.1662Z" fill="#012B27"/>
<path d="M55.7635 46.3935C56.7691 43.651 56.0378 40.9086 54.3009 40.2687C52.564 39.6288 50.2786 41.4571 49.3644 44.1995C48.4503 46.942 49.0902 49.6845 50.9185 50.233C52.7468 50.7815 54.8494 49.136 55.7635 46.3935Z" fill="#012B27"/>
<path d="M54.941 47.3077C55.4895 45.7536 55.1238 44.1995 54.1182 43.9253C53.1127 43.651 51.8328 44.5652 51.3758 46.1193C50.9187 47.6733 51.1929 49.136 52.1985 49.5017C53.2041 49.8673 54.3925 48.8618 54.941 47.3077Z" fill="white"/>
<path d="M88.9479 48.4048C89.8621 45.6624 89.1308 42.9199 87.3025 42.28C85.4741 41.6401 83.2802 43.377 82.366 46.2109C81.4519 49.0447 82.0918 51.6958 83.9201 52.3357C85.7484 52.9756 87.9424 51.2387 88.9479 48.4048Z" fill="#012B27"/>
<path d="M30.0758 51.9698L31.7212 51.6955H33.641C35.032 51.876 36.3704 52.3429 37.5718 53.0668C38.0289 53.341 38.8517 53.0668 39.3088 52.8839C39.7658 52.7011 40.4972 52.4269 40.1315 52.1526C38.57 51.331 36.8612 50.8272 35.1037 50.6703C33.3463 50.5134 31.5752 50.7065 29.8929 51.2385C29.6187 51.3299 28.6131 51.6041 28.6131 51.9698C28.6131 52.3354 29.8929 52.0612 30.0758 51.9698V51.9698Z" fill="#012B27"/>
<path d="M88.0332 55.3523C88.3075 55.2609 87.759 55.5351 87.9418 55.4437H88.2161C88.3989 55.3523 87.9418 55.5351 88.0332 55.4437H88.3075C88.3989 55.3523 87.9418 55.4437 88.1246 55.4437H88.3989C88.4903 55.3523 88.6731 55.4437 88.3075 55.4437H89.5873L90.3186 55.9008C90.1358 55.7179 90.3186 55.9008 90.41 55.9008H90.5015L90.7757 56.175C90.9775 56.3482 91.1344 56.5678 91.2328 56.8149H91.3242C91.3771 56.8618 91.4098 56.9273 91.4156 56.9978L91.5984 57.3634C91.6899 57.9119 92.6954 57.8205 93.0611 57.6377C93.3976 57.5594 93.7108 57.4028 93.9753 57.1806C94.1339 57.0399 94.2322 56.8434 94.2495 56.6321C94.0108 56.0079 93.6432 55.441 93.1707 54.9684C92.6981 54.4959 92.1312 54.1283 91.507 53.8896C90.6659 53.6236 89.7803 53.5271 88.9016 53.6055C88.0229 53.684 87.1685 53.9359 86.3877 54.3467C86.0221 54.5295 85.565 55.078 86.1135 55.3523C86.432 55.464 86.7727 55.4974 87.1069 55.4497C87.441 55.4019 87.7588 55.2745 88.0332 55.078V55.3523Z" fill="#012B27"/>
<path d="M35.3779 53.4326C37.1148 61.9343 45.525 66.9622 53.3868 68.5162C61.9999 70.0716 70.8858 68.6872 78.6175 64.5853C82.9955 62.3267 86.88 59.2191 90.0445 55.4438C90.4102 54.9867 89.7703 54.8953 89.4046 54.8953C89.087 54.8803 88.7697 54.9293 88.4713 55.0392C88.173 55.1491 87.8997 55.3178 87.6677 55.5352C77.7948 67.6021 58.3232 72.6299 45.0679 63.0313C41.5456 60.5969 39.0405 56.9532 38.0289 52.7927C37.9375 52.1528 35.2864 52.7013 35.3779 53.4326V53.4326Z" fill="#012B27"/>
<path d="M34.3725 53.5239C33.4762 58.9599 33.1697 64.4768 33.4583 69.9787C33.6411 74.9152 34.1896 80.1259 36.6579 84.5138C41.0458 92.3756 50.9187 95.2095 59.329 93.9297C64.9203 92.9852 70.2481 90.8666 74.9611 87.7134C75.4182 87.4391 75.6924 86.9821 75.2353 86.6164C74.9257 86.4836 74.5876 86.4308 74.2521 86.4627C73.9167 86.4947 73.5947 86.6104 73.3156 86.7992C66.0023 91.5529 56.7693 94.5696 48.2677 91.1872C44.5955 89.8251 41.4776 87.2857 39.4003 83.9653C37.0235 79.943 36.475 75.098 36.1094 70.6186C35.77 64.813 36.0766 58.9876 37.0235 53.2496C37.1149 52.1526 34.4639 52.6097 34.3725 53.5239V53.5239Z" fill="#012B27"/>
<path d="M81.3604 61.843C78.4822 64.9262 76.1068 68.443 74.3214 72.2644C72.3102 76.8351 71.7617 82.0458 71.5789 86.9823C71.4875 87.8965 74.1385 87.348 74.1385 86.6166C74.4128 81.7716 74.9613 76.6523 76.881 72.2644C78.5787 68.4159 80.9292 64.8902 83.8286 61.843C84.2857 61.3859 83.463 61.203 83.1887 61.203C82.8557 61.1693 82.5193 61.2091 82.2034 61.3197C81.8875 61.4303 81.5997 61.6089 81.3604 61.843V61.843Z" fill="#012B27"/>
<path d="M36.4753 76.9264C41.4117 75.5552 46.9881 78.2063 50.7361 81.4058C54.2513 84.4419 56.6621 88.5564 57.5923 93.107C57.6837 93.8384 60.3348 93.1984 60.2434 92.3757C58.1408 82.0457 47.0795 72.7213 36.201 75.8294C35.9268 75.9209 34.9212 76.1951 35.0126 76.7436C35.104 77.2921 36.201 77.0178 36.4753 76.9264V76.9264Z" fill="#012B27"/>
<path d="M54.4841 81.8628C57.5338 80.436 60.9238 79.8974 64.2656 80.3088C67.0081 80.6744 70.5733 81.68 71.7617 84.5139C72.2188 85.7023 74.8698 84.971 74.4128 83.7826C72.9501 80.3088 68.9278 78.9375 65.454 78.4804C61.3096 77.887 57.0822 78.5227 53.2957 80.3088C52.8386 80.4916 52.2901 81.1315 52.6558 81.68C53.0214 82.2285 53.9356 82.0457 54.4841 81.8628V81.8628Z" fill="#012B27"/>
<path d="M43.0566 26.6479C48.096 25.7546 53.0077 24.2503 57.6832 22.1685C58.0488 21.9857 58.5059 21.62 57.9574 21.3458C57.4089 21.0715 56.5862 21.5286 56.1291 21.7114C52.0754 23.4442 47.8454 24.7316 43.5137 25.5509C43.148 25.5509 42.0511 25.8252 41.9596 26.2822C41.8682 26.7393 42.7824 26.6479 43.0566 26.6479V26.6479Z" fill="#012B27"/>
<path d="M74.7782 21.8026C78.8862 24.3583 83.4491 26.0966 88.2163 26.9219C88.8387 27.0614 89.4907 26.9636 90.0447 26.6476C90.2275 26.5562 90.9588 26.0077 90.3189 25.8249C85.6928 25.0051 81.2598 23.331 77.2464 20.8884C76.6781 20.6888 76.0538 20.7216 75.5095 20.9798C75.3267 21.0713 74.3211 21.5283 74.7782 21.8026V21.8026Z" fill="#012B27"/>
<path d="M87.3932 49.6844C87.9417 48.1303 87.576 46.5763 86.5704 46.302C85.5649 46.0278 84.3765 46.9419 83.828 48.496C83.2795 50.0501 83.6451 51.5127 84.6507 51.8784C85.6563 52.244 86.9361 51.2385 87.3932 49.6844Z" fill="white"/>
<path d="M41.9602 13.3925V15.9522L69.2935 17.5976C69.2935 17.5976 66.094 14.7638 69.385 8.0904C72.6759 1.41704 75.0527 0.959961 75.0527 0.959961L59.6035 3.33677V6.90199L56.1297 3.97668L51.7417 7.5419L53.2958 10.9243L46.0739 10.2844L41.9602 13.3925Z" fill="#BFF007"/>
<path d="M75.5096 0.0457079L62.4372 2.42252C61.4287 2.47355 60.4514 2.7888 59.6033 3.33668C59.3222 3.57908 59.1262 3.90514 59.0439 4.26707C58.9617 4.62899 58.9975 5.00775 59.1462 5.34783C59.493 7.54066 59.9816 9.70872 60.6089 11.8384C60.7003 12.3868 63.3513 11.6555 63.2599 11.107C62.6939 9.37624 62.266 7.60331 61.9801 5.80491L61.7058 4.43367V3.88517C61.7058 3.79376 61.7973 3.24526 61.7973 3.24526C61.7973 3.24526 60.8831 3.42809 61.6144 3.33668L62.3458 3.15385L63.8084 2.97101L75.0526 0.959866C75.3268 0.86845 76.5152 0.594203 76.6066 0.22854C76.698 -0.137124 75.6925 0.0457079 75.5096 0.0457079Z" fill="#012B27"/>
<path d="M55.5806 4.25076C54.6379 4.83958 53.7505 5.51273 52.9295 6.26191L51.8325 7.45032C51.5583 7.81598 51.0098 8.27306 51.0098 8.63872C51.1113 8.86301 51.2338 9.07725 51.3754 9.27863L51.9239 10.01C52.2304 10.4584 52.5663 10.8859 52.9295 11.2898L55.3063 13.6666H56.0376L57.0432 13.3923C57.226 13.3923 58.1402 13.0267 57.866 12.7524C57.0915 12.098 56.3588 11.3958 55.672 10.6499C54.9815 9.83581 54.3404 8.98106 53.7522 8.09023C53.5694 7.72457 54.0265 7.3589 54.3007 7.08465L55.3063 5.98766C56.0271 5.32865 56.7905 4.71789 57.5917 4.15935C57.6831 4.06793 57.9574 3.97652 57.866 3.79368C57.7745 3.61085 57.5003 3.61085 57.4089 3.61085C56.7586 3.60905 56.1224 3.79991 55.5806 4.15935V4.25076Z" fill="#012B27"/>
<path d="M47.3535 10.01C45.7509 10.4426 44.2136 11.0883 42.7827 11.9297C42.2342 12.2954 40.863 13.0267 41.5029 13.8495L42.417 14.5808L43.3312 15.3121C43.6003 15.4486 43.8978 15.5198 44.1996 15.5198C44.5014 15.5198 44.7989 15.4486 45.0681 15.3121C45.2509 15.2207 46.2565 14.6722 45.7994 14.3066L44.7938 13.5752C44.4783 13.3823 44.1996 13.1347 43.9711 12.8439H44.0625H44.3368L44.611 12.6611L45.708 12.1126H46.1651L46.7136 11.8383L47.3535 11.6555C46.8964 11.8383 47.2621 11.6555 47.3535 11.6555H47.7191L48.6333 11.1984C48.792 11.0578 48.8902 10.8613 48.9075 10.6499C48.7247 10.1928 47.7191 10.3757 47.4449 10.4671L47.3535 10.01Z" fill="#012B27"/>
<path d="M37.0231 58.7346C35.6997 59.8602 34.7444 61.3569 34.2806 63.0311C34.0063 64.1281 36.3832 63.3968 36.6574 63.1226C37.2541 62.5625 38.0335 62.2377 38.8514 62.2084L38.2115 61.3857C36.3582 63.6917 35.2149 66.4865 34.9205 69.4303C34.7377 70.5272 37.1145 69.7959 37.4801 69.2474C38.9195 67.0781 40.676 65.1368 42.6908 63.4882L40.4055 63.214C38.1201 66.962 35.7432 70.8929 34.5548 75.1894C34.2806 76.2864 36.7488 75.5551 37.1145 75.0066L43.9707 64.311H41.411C41.0454 68.1504 38.0286 71.35 38.5771 75.3723C38.76 76.2864 40.8625 75.5551 41.1368 75.0066C42.8737 71.8985 44.6106 68.8818 46.6217 65.9564H44.0621C43.4073 69.3591 43.2533 72.8392 43.605 76.2864C43.6964 77.292 45.9818 76.2864 46.2561 75.7379C47.5429 72.8122 49.0718 69.999 50.8269 67.3277H48.3586C47.5098 71.0424 47.2323 74.8649 47.5359 78.6632C47.6273 79.5774 50.0041 78.7547 50.1869 78.1148C51.1968 74.8432 52.4811 71.6628 54.0264 68.6075H51.4668L48.9985 79.0289C48.7243 80.1259 51.2839 79.486 51.6496 78.7547C52.8991 75.2347 54.5885 71.8867 56.6775 68.7903H54.1178L50.2784 80.583C50.0041 81.5886 52.5638 80.9486 52.838 80.4916L60.3341 68.9732H57.7745L53.3865 80.3087C53.0208 81.3143 55.5805 80.7658 55.9461 80.2173L59.6942 74.3667C60.7877 72.6085 62.0424 70.9559 63.4422 69.4303H61.0654C60.7961 72.484 60.1514 75.493 59.1457 78.389C58.9629 78.9375 59.7856 78.9375 60.0599 78.9375C60.3694 78.9334 60.6748 78.8664 60.9577 78.7407C61.2405 78.615 61.4949 78.4331 61.7053 78.2062L70.4813 67.8762H68.013C65.7971 71.6192 64.1053 75.6486 62.9852 79.8517C62.7109 80.8572 65.1791 80.2173 65.5448 79.6688C68.3787 75.2809 71.304 70.8015 75.3263 67.4191L73.0409 67.1449C70.3408 71.0566 68.2166 75.3359 66.7332 79.8517C66.459 80.9486 69.0186 80.2173 69.2929 79.7602C71.2075 76.7265 73.2825 73.7971 75.5091 70.9843C77.4289 68.5161 79.9885 66.4135 81.1769 63.3968C81.3598 62.9397 80.4456 62.8483 80.1713 62.8483C79.8754 62.854 79.584 62.922 79.3162 63.048C79.0484 63.1741 78.8102 63.3552 78.6173 63.5796C76.4055 66.1786 74.6162 69.1092 73.3152 72.2641C71.7294 75.4278 70.444 78.7333 69.4757 82.1371C69.2929 83.1426 71.9439 82.777 72.1267 81.8628C73.0735 78.5661 74.2967 75.3552 75.7834 72.2641C77.1406 69.138 78.9249 66.2153 81.0855 63.5796L78.5259 63.7625C77.3375 66.6878 74.6864 68.7903 72.7667 71.2586C70.8469 73.7268 68.7444 76.8349 66.8246 79.6688H69.3843C70.8091 75.2198 72.8722 71.0011 75.5091 67.1449C75.7834 66.6878 75.3263 66.4135 74.9606 66.4135C74.6553 66.3685 74.3439 66.3857 74.0454 66.4643C73.7469 66.5429 73.4674 66.6811 73.2237 66.8706C69.0186 70.4358 66.0019 75.0066 63.0766 79.486H65.6362C66.7353 75.4494 68.3645 71.5762 70.4813 67.9676C70.8469 67.4191 70.207 67.2363 69.8414 67.2363C69.5083 67.2025 69.172 67.2424 68.856 67.3529C68.5401 67.4635 68.2523 67.6421 68.013 67.8762L59.2371 78.1148L61.7968 77.9319C62.7595 75.0554 63.4033 72.0818 63.7165 69.0646C63.8079 67.9676 61.7053 68.6075 61.3397 68.9732C58.1401 72.1727 55.9461 76.3778 53.4779 80.1259H56.0376L60.4255 68.8818C60.7912 67.8762 58.1401 68.4247 57.8659 68.9732L50.3698 80.4001L52.9294 80.2173L56.7689 68.6075C56.9517 68.059 56.129 67.9676 55.8547 68.059C55.5505 68.04 55.2457 68.0874 54.9616 68.1979C54.6774 68.3084 54.4207 68.4793 54.2092 68.6989C52.0771 71.9282 50.3284 75.3949 48.9985 79.0289L51.6496 78.7547L54.1178 68.4247C54.3921 67.4191 51.8324 67.9676 51.5582 68.5161C49.9907 71.7414 48.6468 75.0707 47.5359 78.4804L50.1869 77.9319C50.0175 74.3808 50.2629 70.822 50.9183 67.3277C51.1925 66.1393 48.7243 66.962 48.3586 67.4191C46.5418 70.2444 44.9523 73.2095 43.605 76.2864L46.2561 75.7379C45.9063 72.4429 46.0605 69.1137 46.7131 65.865C46.9874 64.6766 44.5192 65.4994 44.1535 65.9564C42.1424 68.8818 40.4055 71.9899 38.6686 75.098L41.2282 74.7324C40.6797 70.9843 43.6964 67.7848 44.0621 64.1281C44.1535 62.9397 41.8681 63.6711 41.5024 64.2195L34.6463 75.0066L37.2059 74.8238C38.3943 70.6187 40.5883 66.962 42.8737 63.3054C43.1479 62.7569 42.7823 62.5741 42.3252 62.4827C41.6975 62.4374 41.0762 62.6336 40.5883 63.0311C38.4051 64.7876 36.5218 66.887 35.0119 69.2474L37.5716 69.0646C37.8477 66.287 38.9279 63.6502 40.6797 61.4771C41.0454 60.9286 40.314 60.6543 39.9484 60.6543C37.9782 60.7132 36.0825 61.42 34.5548 62.6655H36.9317C37.2555 61.27 38.0258 60.0182 39.1256 59.1003C39.5827 58.7346 39.3999 58.2775 38.9428 58.1861C38.6087 58.1203 38.2645 58.1271 37.9333 58.206C37.602 58.2849 37.2916 58.4339 37.0231 58.6432V58.7346Z" fill="#012B27"/>
</svg>
