<?xml version="1.0" encoding="UTF-8"?>
<svg width="89px" height="68px" viewBox="0 0 89 68" version="1.1" xmlns="http://www.w3.org/2000/svg" xmlns:xlink="http://www.w3.org/1999/xlink">
    <title>Group</title>
    <g id="Page-1" stroke="none" stroke-width="1" fill="none" fill-rule="evenodd">
        <g id="Group" transform="translate(44.569756, 34.033098) rotate(-4.000000) translate(-44.569756, -34.033098) translate(2.569756, 2.997564)">
            <rect id="Rectangle" fill="#FFEC0F" x="5.38184519e-14" y="1.97797736e-13" width="84" height="55"></rect>
            <g id="Free" transform="translate(10.816295, 9.349756)" fill="#000000" fill-rule="nonzero">
                <polygon id="Path" points="-4.16561648e-13 22.72 -4.16561648e-13 4.1012528e-14 13.824 4.1012528e-14 13.824 4.416 4.64 4.416 4.64 9.12 11.84 9.12 11.84 13.536 4.64 13.536 4.64 22.72"></polygon>
                <path d="M14.952,22.72 L14.952,6.72 L19.336,6.72 L19.336,9.28 C19.6133333,8.49066667 20.12,7.83466667 20.856,7.312 C21.592,6.78933333 22.408,6.528 23.304,6.528 C23.8586667,6.528 24.3493333,6.592 24.776,6.72 L24.776,11.168 C24.072,10.9333333 23.4106667,10.816 22.792,10.816 C21.7466667,10.816 20.9093333,11.1946667 20.28,11.952 C19.6506667,12.7093333 19.336,13.7493333 19.336,15.072 L19.336,22.72 L14.952,22.72 Z" id="Path"></path>
                <path d="M33.872,23.072 C31.44,23.072 29.4186667,22.304 27.808,20.768 C26.1973333,19.232 25.392,17.216 25.392,14.72 C25.392,12.3306667 26.192,10.3413333 27.792,8.752 C29.392,7.16266667 31.3973333,6.368 33.808,6.368 C36.0266667,6.368 37.8933333,7.056 39.408,8.432 C40.9226667,9.808 41.68,11.744 41.68,14.24 C41.68,14.944 41.6586667,15.4453333 41.616,15.744 L29.648,15.744 C29.776,16.7893333 30.24,17.6053333 31.04,18.192 C31.84,18.7786667 32.7946667,19.072 33.904,19.072 C35.7813333,19.072 37.1573333,18.4 38.032,17.056 L41.296,19.488 C39.6533333,21.8773333 37.1786667,23.072 33.872,23.072 Z M29.808,12.768 L37.296,12.768 C37.104,11.8506667 36.672,11.1573333 36,10.688 C35.328,10.2186667 34.5546667,9.984 33.68,9.984 C32.784,9.984 31.9626667,10.2186667 31.216,10.688 C30.4693333,11.1573333 30,11.8506667 29.808,12.768 Z" id="Shape"></path>
                <path d="M51.768,23.072 C49.336,23.072 47.3146667,22.304 45.704,20.768 C44.0933333,19.232 43.288,17.216 43.288,14.72 C43.288,12.3306667 44.088,10.3413333 45.688,8.752 C47.288,7.16266667 49.2933333,6.368 51.704,6.368 C53.9226667,6.368 55.7893333,7.056 57.304,8.432 C58.8186667,9.808 59.576,11.744 59.576,14.24 C59.576,14.944 59.5546667,15.4453333 59.512,15.744 L47.544,15.744 C47.672,16.7893333 48.136,17.6053333 48.936,18.192 C49.736,18.7786667 50.6906667,19.072 51.8,19.072 C53.6773333,19.072 55.0533333,18.4 55.928,17.056 L59.192,19.488 C57.5493333,21.8773333 55.0746667,23.072 51.768,23.072 Z M47.704,12.768 L55.192,12.768 C55,11.8506667 54.568,11.1573333 53.896,10.688 C53.224,10.2186667 52.4506667,9.984 51.576,9.984 C50.68,9.984 49.8586667,10.2186667 49.112,10.688 C48.3653333,11.1573333 47.896,11.8506667 47.704,12.768 Z" id="Shape"></path>
            </g>
            <rect id="Rectangle" fill="#FFEC0F" transform="translate(42.500000, 55.000000) rotate(45.000000) translate(-42.500000, -55.000000) " x="37.5" y="50" width="10" height="10"></rect>
            <g id="Trial-3-days" transform="translate(9.842756, 36.181744)" fill="#000000" fill-rule="nonzero">
                <polygon id="Path" points="2.457 9.828 2.457 2.392 -7.07707494e-14 2.392 -7.07707494e-14 0.598 6.838 0.598 6.838 2.392 4.355 2.392 4.355 9.828"></polygon>
                <path d="M6.72425,9.828 L6.72425,3.328 L8.50525,3.328 L8.50525,4.368 C8.61791667,4.04733333 8.82375,3.78083333 9.12275,3.5685 C9.42175,3.35616667 9.75325,3.25 10.11725,3.25 C10.3425833,3.25 10.5419167,3.276 10.71525,3.328 L10.71525,5.135 C10.42925,5.03966667 10.1605833,4.992 9.90925,4.992 C9.48458333,4.992 9.14441667,5.14583333 8.88875,5.4535 C8.63308333,5.76116667 8.50525,6.18366667 8.50525,6.721 L8.50525,9.828 L6.72425,9.828 Z" id="Path"></path>
                <path d="M12.4995,2.262 C12.1961667,2.262 11.9318333,2.1515 11.7065,1.9305 C11.4811667,1.7095 11.3685,1.443 11.3685,1.131 C11.3685,0.819 11.4811667,0.5525 11.7065,0.3315 C11.9318333,0.1105 12.1961667,-2.98921971e-14 12.4995,-2.98921971e-14 C12.8201667,-2.98921971e-14 13.091,0.1105 13.312,0.3315 C13.533,0.5525 13.6435,0.819 13.6435,1.131 C13.6435,1.443 13.533,1.7095 13.312,1.9305 C13.091,2.1515 12.8201667,2.262 12.4995,2.262 Z M11.6155,9.828 L11.6155,3.328 L13.3965,3.328 L13.3965,9.828 L11.6155,9.828 Z" id="Shape"></path>
                <path d="M17.50775,9.971 C16.64975,9.971 15.9260833,9.63733333 15.33675,8.97 C14.7474167,8.30266667 14.45275,7.50533333 14.45275,6.578 C14.45275,5.65066667 14.7474167,4.85333333 15.33675,4.186 C15.9260833,3.51866667 16.64975,3.185 17.50775,3.185 C17.92375,3.185 18.2964167,3.27166667 18.62575,3.445 C18.9550833,3.61833333 19.2064167,3.822 19.37975,4.056 L19.37975,3.328 L21.16075,3.328 L21.16075,9.828 L19.37975,9.828 L19.37975,9.1 C19.2064167,9.334 18.9550833,9.53766667 18.62575,9.711 C18.2964167,9.88433333 17.92375,9.971 17.50775,9.971 Z M16.68875,7.852 C16.9920833,8.18133333 17.39075,8.346 17.88475,8.346 C18.37875,8.346 18.77525,8.18133333 19.07425,7.852 C19.37325,7.52266667 19.52275,7.098 19.52275,6.578 C19.52275,6.058 19.37325,5.63333333 19.07425,5.304 C18.77525,4.97466667 18.37875,4.81 17.88475,4.81 C17.39075,4.81 16.99425,4.97466667 16.69525,5.304 C16.39625,5.63333333 16.24675,6.058 16.24675,6.578 C16.24675,7.098 16.3940833,7.52266667 16.68875,7.852 Z" id="Shape"></path>
                <polygon id="Path" points="22.646 9.828 22.646 0.078 24.427 0.078 24.427 9.828"></polygon>
                <path d="M31.6485,9.971 C30.7211667,9.971 29.926,9.6915 29.263,9.1325 C28.6,8.5735 28.2511667,7.80866667 28.2165,6.838 L29.9845,6.838 C30.0278333,7.28 30.199,7.62016667 30.498,7.8585 C30.797,8.09683333 31.1805,8.216 31.6485,8.216 C32.0645,8.216 32.4003333,8.112 32.656,7.904 C32.9116667,7.696 33.0438333,7.41433333 33.0525,7.059 C33.0525,6.669 32.9181667,6.36566667 32.6495,6.149 C32.3808333,5.93233333 32.0125,5.824 31.5445,5.824 L30.7645,5.824 L30.7645,4.368 L31.4665,4.368 C31.8911667,4.368 32.2161667,4.26833333 32.4415,4.069 C32.6668333,3.86966667 32.7838333,3.601 32.7925,3.263 C32.8011667,2.951 32.6906667,2.69533333 32.461,2.496 C32.2313333,2.29666667 31.9431667,2.197 31.5965,2.197 C31.1805,2.197 30.8381667,2.31833333 30.5695,2.561 C30.3008333,2.80366667 30.1708333,3.11566667 30.1795,3.497 L28.3855,3.497 C28.3855,2.57833333 28.7061667,1.8395 29.3475,1.2805 C29.9888333,0.7215 30.7385,0.442 31.5965,0.442 C32.5151667,0.442 33.2431667,0.699833333 33.7805,1.2155 C34.3178333,1.73116667 34.5865,2.366 34.5865,3.12 C34.5865,3.54466667 34.4868333,3.9325 34.2875,4.2835 C34.0881667,4.6345 33.8455,4.90966667 33.5595,5.109 C33.9321667,5.28233333 34.2398333,5.551 34.4825,5.915 C34.7251667,6.279 34.8465,6.708 34.8465,7.202 C34.8465,8.01666667 34.5518333,8.68183333 33.9625,9.1975 C33.3731667,9.71316667 32.6018333,9.971 31.6485,9.971 Z" id="Path"></path>
                <path d="M41.379,9.971 C40.521,9.971 39.7973333,9.63733333 39.208,8.97 C38.6186667,8.30266667 38.324,7.50533333 38.324,6.578 C38.324,5.65066667 38.6186667,4.85333333 39.208,4.186 C39.7973333,3.51866667 40.521,3.185 41.379,3.185 C41.795,3.185 42.1676667,3.27166667 42.497,3.445 C42.8263333,3.61833333 43.0776667,3.822 43.251,4.056 L43.251,0.078 L45.032,0.078 L45.032,9.828 L43.251,9.828 L43.251,9.1 C43.0776667,9.334 42.8263333,9.53766667 42.497,9.711 C42.1676667,9.88433333 41.795,9.971 41.379,9.971 Z M40.56,7.852 C40.8633333,8.18133333 41.262,8.346 41.756,8.346 C42.25,8.346 42.6465,8.18133333 42.9455,7.852 C43.2445,7.52266667 43.394,7.098 43.394,6.578 C43.394,6.058 43.2445,5.63333333 42.9455,5.304 C42.6465,4.97466667 42.25,4.81 41.756,4.81 C41.262,4.81 40.8655,4.97466667 40.5665,5.304 C40.2675,5.63333333 40.118,6.058 40.118,6.578 C40.118,7.098 40.2653333,7.52266667 40.56,7.852 Z" id="Shape"></path>
                <path d="M49.15625,9.971 C48.29825,9.971 47.5745833,9.63733333 46.98525,8.97 C46.3959167,8.30266667 46.10125,7.50533333 46.10125,6.578 C46.10125,5.65066667 46.3959167,4.85333333 46.98525,4.186 C47.5745833,3.51866667 48.29825,3.185 49.15625,3.185 C49.57225,3.185 49.9449167,3.27166667 50.27425,3.445 C50.6035833,3.61833333 50.8549167,3.822 51.02825,4.056 L51.02825,3.328 L52.80925,3.328 L52.80925,9.828 L51.02825,9.828 L51.02825,9.1 C50.8549167,9.334 50.6035833,9.53766667 50.27425,9.711 C49.9449167,9.88433333 49.57225,9.971 49.15625,9.971 Z M48.33725,7.852 C48.6405833,8.18133333 49.03925,8.346 49.53325,8.346 C50.02725,8.346 50.42375,8.18133333 50.72275,7.852 C51.02175,7.52266667 51.17125,7.098 51.17125,6.578 C51.17125,6.058 51.02175,5.63333333 50.72275,5.304 C50.42375,4.97466667 50.02725,4.81 49.53325,4.81 C49.03925,4.81 48.64275,4.97466667 48.34375,5.304 C48.04475,5.63333333 47.89525,6.058 47.89525,6.578 C47.89525,7.098 48.0425833,7.52266667 48.33725,7.852 Z" id="Shape"></path>
                <polygon id="Path" points="56.7645 12.545 54.8275 12.545 56.1925 9.464 53.4625 3.328 55.4125 3.328 57.1545 7.54 58.8835 3.328 60.8465 3.328"></polygon>
                <path d="M63.50175,9.971 C62.2710833,9.971 61.3784167,9.555 60.82375,8.723 L62.04575,7.683 C62.35775,8.18566667 62.8430833,8.437 63.50175,8.437 C63.7010833,8.437 63.8700833,8.398 64.00875,8.32 C64.1474167,8.242 64.21675,8.125 64.21675,7.969 C64.21675,7.83033333 64.15825,7.7155 64.04125,7.6245 C63.92425,7.5335 63.6924167,7.44033333 63.34575,7.345 L62.86475,7.228 C62.26675,7.072 61.8139167,6.812 61.50625,6.448 C61.1985833,6.084 61.0534167,5.65066667 61.07075,5.148 C61.0880833,4.55866667 61.32425,4.08416667 61.77925,3.7245 C62.23425,3.36483333 62.81275,3.185 63.51475,3.185 C64.5114167,3.185 65.2610833,3.549 65.76375,4.277 L64.59375,5.226 C64.2904167,4.84466667 63.9220833,4.654 63.48875,4.654 C63.3154167,4.654 63.16375,4.693 63.03375,4.771 C62.90375,4.849 62.83875,4.95733333 62.83875,5.096 C62.83875,5.356 63.0510833,5.54233333 63.47575,5.655 L64.08675,5.837 C65.3434167,6.175 65.97175,6.84666667 65.97175,7.852 C65.97175,8.46733333 65.73775,8.97433333 65.26975,9.373 C64.80175,9.77166667 64.2124167,9.971 63.50175,9.971 Z" id="Path"></path>
            </g>
        </g>
    </g>
</svg>