<?xml version="1.0" encoding="UTF-8"?>
<svg width="132px" height="97px" viewBox="0 0 132 97" version="1.1" xmlns="http://www.w3.org/2000/svg" xmlns:xlink="http://www.w3.org/1999/xlink">
    <title>iconSign</title>
    <defs>
        <linearGradient x1="100%" y1="41.6442612%" x2="1.19372815%" y2="58.1562492%" id="linearGradient-1">
            <stop stop-color="#FFFFFF" offset="0%"></stop>
            <stop stop-color="#014840" offset="100%"></stop>
        </linearGradient>
    </defs>
    <g id="Page-1" stroke="none" stroke-width="1" fill="none" fill-rule="evenodd">
        <g id="Artboard" transform="translate(-122.000000, -2302.000000)">
            <g id="iconSign" transform="translate(122.000000, 2302.000000)">
                <path d="M73.8647245,1.4500853 C73.8027032,0.610001241 73.0958657,-0.0303225696 72.2649855,0.00110914685 C71.4038636,0.0478670722 50.813824,1.0768012 39.0969279,9.92911553 C38.8516619,10.1054968 38.6684172,10.3572103 38.5743602,10.6463301 L35.713949,18.7975354 L33.3304866,15.2756245 C32.8609702,14.5856854 31.9388521,14.3937181 31.2389343,14.8392172 C30.3009265,15.430705 8.51172337,29.7859076 11.0335804,66.1014894 C8.56374949,70.3845153 6.59752116,74.9457509 5.17487602,79.6924597 C5.05980348,80.0893825 5.10593501,80.5153991 5.30199402,80.8788121 C5.49728416,81.2409263 5.82866232,81.5097844 6.22001147,81.624601 C7.03500184,81.8578711 7.88305313,81.3861356 8.12729396,80.5652743 C9.16345938,77.0786916 10.5279275,73.7017304 12.2017332,70.4808886 C21.1568884,51.1041446 51.4417254,26.2120435 51.8909952,26.5754565 C52.5788676,26.0933303 53.520976,26.2577624 54.0104828,26.9448441 C54.4999895,27.6327051 54.3569818,28.589684 53.6890998,29.1001247 C53.427944,29.3030021 32.6536346,44.7011662 19.444896,64.3865126 C18.7060227,65.4936363 17.9991851,66.599721 17.3225894,67.7068448 C25.2574688,67.1608161 41.2192346,65.2593272 49.8758162,58.6667195 C50.2574265,58.3744824 50.483471,57.9198915 50.4896219,57.4349079 C50.4955164,56.9507036 50.280236,56.4911771 49.9068269,56.1888092 L46.7083741,53.6327093 L55.9956763,53.5230879 C56.2980941,53.5108789 56.5912856,53.4145056 56.8416773,53.2430599 C57.6566676,52.6970312 76.6016057,39.1689244 73.8647245,1.4500853 Z" id="Fill-1" fill="#014840"></path>
                <path d="M4.03345792,92.441456 C19.3433652,93.7411642 32.2646828,92.6459815 42.7974108,89.1559078 C51.460662,86.2852949 56.0707821,78.6276385 65.0210849,75.8495062 C68.2097872,74.8597478 76.6266899,82.5206861 79.4522259,80.0396002 C81.8605739,77.9248446 67.7371092,67.5772327 69.2001642,62.3120972 C70.6878251,56.9584122 87.7643555,56.6850146 90.5347276,54.3742042 C95.0482286,50.6094231 107.631668,59.0709885 112.418161,56.8699406 C118.029096,54.2897765 124.223042,49.0221168 131,41.0669613" id="Path-2" stroke="url(#linearGradient-1)" stroke-width="1.7" stroke-linecap="round"></path>
                <ellipse id="Oval" fill="#014840" cx="4.26062222" cy="92.745614" rx="4.26062222" ry="4.25438596"></ellipse>
            </g>
        </g>
    </g>
</svg>