<svg width="191" height="180" viewBox="0 0 191 180" fill="none" xmlns="http://www.w3.org/2000/svg">
<path d="M115.026 130.24C106.349 132.342 98.2414 136.327 91.2793 141.913C88.1903 144.325 84.1361 147.799 86.7424 152.043C89.3487 156.288 92.5342 157.06 96.2023 157.832C100.335 158.663 104.536 159.115 108.751 159.183C113.681 159.281 118.613 159.088 123.52 158.604C132.875 157.68 142.01 155.202 150.549 151.272C158.657 147.509 166.186 142.106 171.592 134.967C172.171 134.195 171.978 133.713 171.206 133.327C166.476 131.108 160.974 131.205 156.051 132.073C150.824 133.053 145.713 134.573 140.799 136.607C135.997 138.605 131.35 140.959 126.899 143.65C122.845 146.158 118.694 148.956 115.508 152.526C112.323 156.095 110.296 159.955 111.937 164.007C113.578 168.058 117.439 169.699 121.107 170.663C125.679 171.816 130.393 172.303 135.104 172.11C140.184 171.938 145.232 171.227 150.163 169.988C155.548 168.671 160.74 166.661 165.607 164.007C167.939 162.775 170.167 161.355 172.268 159.762C173.909 158.604 177.384 155.999 175.839 153.491C175.164 152.429 173.426 152.622 172.364 152.815C164.141 153.884 156.469 157.532 150.452 163.235C147.878 165.702 145.87 168.697 144.564 172.014C144.081 173.461 143.695 175.391 144.371 176.838C145.046 178.285 147.267 179.443 149.197 179.829C151.638 180.086 154.1 180.054 156.533 179.732C159.356 179.536 162.162 179.149 164.932 178.574C166.029 178.386 167.099 178.062 168.117 177.61C168.6 177.32 169.565 176.741 169.758 176.066C169.951 175.391 166.959 174.812 166.283 174.908C164.082 175.351 161.859 175.673 159.622 175.873L155.954 176.066H155.086C154.721 176.094 154.355 176.028 154.024 175.873C150.549 174.233 153.445 169.12 154.796 167.094C156.799 164.027 159.473 161.454 162.615 159.569L163.387 159.183L164.642 158.507L165.318 158.121C164.932 158.314 164.932 158.314 165.414 158.121L166.766 157.639L167.441 157.35C166.959 157.543 166.862 157.543 167.345 157.35L168.793 156.964L169.565 156.771C168.986 156.964 168.986 156.964 169.468 156.867L171.013 156.578L167.441 155.903C168.407 157.446 166.476 158.604 165.414 159.472C164.001 160.507 162.517 161.442 160.974 162.27L158.368 163.621L157.113 164.199L156.244 164.585L153.541 165.647L152.962 165.84L151.224 166.418L148.522 167.094H147.846L146.108 167.48L143.309 167.866C143.212 167.866 142.44 167.962 142.923 167.962H140.799C137.061 168.281 133.298 168.119 129.602 167.48C126.802 166.901 123.327 165.743 121.3 163.331C119.273 160.919 119.756 156.674 121.686 153.973C123.617 151.272 127.188 148.377 130.47 146.158C133.79 143.934 137.276 141.967 140.896 140.273L143.695 139.116L146.977 137.765L148.618 137.283L149.39 136.993H149.776L153.058 136.028C153.155 136.028 153.831 135.835 153.348 136.028L154.024 135.835L155.665 135.546H156.437C155.954 135.643 156.63 135.546 156.823 135.546H158.464C160.505 135.624 162.508 136.117 164.352 136.993L163.966 135.353C161.961 137.986 159.661 140.381 157.113 142.492C155.821 143.598 154.467 144.628 153.058 145.58L149.101 147.991L146.784 149.149L145.529 149.728L145.046 150.017C145.433 149.825 145.143 149.921 144.95 150.017L139.834 151.947H139.351L137.903 152.333L134.814 153.201L133.366 153.491L132.691 153.684L129.602 154.166C127.752 154.511 125.882 154.737 124.003 154.841L117.922 155.227C114.087 155.259 110.253 155.098 106.434 154.745C103.346 154.359 100.16 153.78 97.5537 152.043C96.1578 151.209 95.0988 149.912 94.5613 148.377C93.9821 146.544 94.8509 145.194 96.1058 143.939C98.8885 141.35 102.005 139.143 105.373 137.379L108.075 136.028C108.172 136.028 108.558 135.835 108.075 136.028L109.041 135.643L110.296 135.16L111.84 134.581L112.419 134.388H112.709L115.894 133.52C116.956 133.231 120.045 132.266 119.659 130.722C119.273 129.179 115.798 130.047 115.026 130.24Z" fill="#BFF007"/>
<path d="M71.684 124.933L70.3326 124.162L68.7881 123.197L66.761 121.75C62.3494 118.596 58.4435 114.79 55.1774 110.462C52.9313 107.48 50.991 104.281 49.3856 100.911C47.5421 97.0307 46.1494 92.9521 45.2348 88.755C43.0171 78.4363 43.8225 67.6974 47.5547 57.8246C51.287 47.9517 57.7877 39.3634 66.2783 33.0883C70.879 29.6658 75.9945 26.9955 81.4335 25.1772C86.9202 23.3821 92.6499 22.4386 98.4228 22.3794C101.264 22.3802 104.102 22.5736 106.917 22.9583C109.692 23.3744 112.434 23.9869 115.122 24.7913C120.382 26.4005 125.364 28.8084 129.892 31.9305C138.323 37.6427 145.032 45.5491 149.294 54.7954C150.906 58.4058 152.198 62.1506 153.155 65.9866C153.831 69.0738 154.217 71.4857 154.507 73.3188C154.893 76.8884 155.182 77.6602 155.472 76.1166C155.711 74.7473 155.808 73.3572 155.762 71.9681C155.77 69.4803 155.576 66.9959 155.182 64.5395C153.85 56.5917 150.821 49.0238 146.302 42.35L144.081 39.3592L141.572 36.3684C137.75 32.0776 133.289 28.4005 128.347 25.4666C125.701 23.8546 122.924 22.4669 120.045 21.3182C116.98 20.0621 113.816 19.0618 110.586 18.3274C107.211 17.6547 103.791 17.2354 100.353 17.0732C93.0813 16.7829 85.8177 17.8294 78.9237 20.1605C71.6695 22.6767 64.9557 26.5391 59.1351 31.5446C53.1383 36.7987 48.2488 43.1941 44.7522 50.3575C41.1983 57.7164 39.1933 65.7259 38.8612 73.8905C38.5291 82.055 39.8771 90.2008 42.8216 97.8237C48.1352 111.051 57.9449 121.983 70.5256 128.696C73.1315 129.998 75.806 131.157 78.5376 132.169C81.0994 133.031 83.7103 133.74 86.3565 134.292C91.0841 135.273 95.9157 135.662 100.739 135.449C108.278 135.126 115.684 133.357 122.555 130.24C125.241 129.075 127.824 127.688 130.278 126.091C132.357 124.729 134.355 123.247 136.262 121.653C139.328 119.06 142.111 116.149 144.564 112.97C146.656 110.37 148.468 107.557 149.97 104.577C151.53 101.556 152.791 98.389 153.734 95.1224C154.841 91.154 155.521 87.0789 155.762 82.9664V79.9756C155.762 79.1073 155.665 78.432 155.665 77.9496C155.665 77.4673 155.472 76.6954 155.279 76.9849C155.086 77.2743 154.989 80.2651 154.217 84.51C154.067 85.6811 153.841 86.8413 153.541 87.9831C153.254 89.3185 152.899 90.6387 152.479 91.9387C151.585 94.9491 150.456 97.8846 149.101 100.718C145.753 107.456 141.093 113.458 135.394 118.373C129.326 123.723 122.135 127.646 114.35 129.854C107.304 131.901 99.9207 132.524 92.631 131.687C87.3208 131.109 82.1201 129.777 77.1862 127.731L74.8695 126.574L73.1319 125.705L72.0701 125.126L71.684 124.933Z" fill="#012B27"/>
<path d="M103.152 132.459C93.3743 130.259 84.3303 125.573 76.896 118.855C69.8153 112.04 64.4556 103.641 61.2582 94.3505C54.8872 76.406 55.8525 55.1812 67.7257 39.6486C74.2897 31.0622 83.6531 24.9842 93.5957 20.7393C94.1749 20.5463 95.2367 19.7745 94.6575 19.0027C94.0783 18.2309 92.5338 18.7133 91.8581 19.0027C82.3982 23.0547 73.4209 28.5538 66.4708 36.3684C60.7144 42.751 56.6637 50.483 54.6941 58.8473C52.2902 69.5676 52.6556 80.7231 55.756 91.2633C58.5325 101.374 63.6967 110.671 70.8146 118.373C78.8266 126.766 89.4449 132.073 100.642 134.87C101.174 134.954 101.718 134.92 102.235 134.77C102.753 134.62 103.23 134.358 103.635 134.002C104.214 133.423 104.117 132.748 103.152 132.459Z" fill="#012B27"/>
<path d="M93.7886 21.3182C104.697 24.116 115.025 28.9399 123.423 36.5615C130.489 43.0865 135.744 51.3296 138.675 60.4875C141.473 69.1922 142.24 78.4214 140.918 87.4682C139.597 96.515 136.221 105.14 131.049 112.681C125.747 120.248 118.56 126.301 110.199 130.24L106.82 131.783C106.048 132.073 105.276 133.134 105.855 133.906C106.434 134.678 107.882 134.581 108.654 134.292C118.001 130.623 126.222 124.568 132.497 116.733C138.38 109.205 142.465 100.432 144.439 91.0858C146.413 81.7393 146.224 72.0656 143.888 62.803C141.444 53.2208 136.593 44.4208 129.794 37.2368C121.786 29.0466 111.819 23.036 100.835 19.7746L96.2019 18.424C95.6947 18.2764 95.1567 18.2703 94.6463 18.4063C94.1358 18.5424 93.6723 18.8154 93.306 19.1958C93.1433 19.3453 93.0231 19.5351 92.9574 19.746C92.8917 19.9569 92.8829 20.1814 92.9318 20.3968C92.9808 20.6122 93.0858 20.8108 93.2363 20.9726C93.3867 21.1344 93.5773 21.2537 93.7886 21.3182Z" fill="#012B27"/>
<path d="M90.7967 20.6431C91.9773 21.6147 93.0458 22.7149 93.9822 23.9233C95.6235 25.7821 97.1392 27.7482 98.5191 29.8083C102.634 35.7029 106.189 41.969 109.137 48.5247C116.57 65.1185 121.011 83.8349 118.018 101.972C116.032 113.648 111.005 124.596 103.442 133.713C102.766 134.388 103.925 134.774 104.504 134.774C105.025 134.78 105.541 134.68 106.022 134.481C106.503 134.282 106.939 133.988 107.303 133.617C114.227 125.354 119.091 115.567 121.493 105.06C123.5 95.6012 123.73 85.852 122.169 76.3098C119.659 59.9088 112.999 44.0868 103.925 30.2907C102.231 27.7444 100.394 25.2964 98.4226 22.9585C97.3444 21.5111 96.0784 20.2134 94.6579 19.0995C94.239 18.8875 93.7761 18.7771 93.3065 18.7771C92.837 18.7771 92.374 18.8875 91.9551 19.0995C91.569 19.2924 90.0245 20.1607 90.7967 20.6431Z" fill="#012B27"/>
<path d="M90.603 19.0993C83.9424 24.1161 80.0812 31.5448 77.4749 39.2628C74.6404 48.0644 73.0801 57.2259 72.8415 66.4691C72.4451 83.8147 76.9986 100.914 85.9695 115.768C90.5575 123.228 96.5974 129.691 103.731 134.774C105.082 135.835 108.847 133.809 107.013 132.459C94.5607 123.583 86.6452 110.655 81.8187 96.3767C76.018 79.2315 75.5469 60.7328 80.4673 43.3148C82.6875 35.0179 86.2591 26.1421 93.3058 20.7394C93.9815 20.2571 94.4642 19.3888 93.5954 18.7134C92.7266 18.0381 91.3752 18.5205 90.603 19.0993Z" fill="#012B27"/>
<path d="M52.0879 41.4818C53.0532 43.7008 55.1769 44.762 57.3971 45.6303C60.2133 46.7447 63.1198 47.6161 66.0848 48.2351C71.932 49.6217 77.9356 50.2379 83.9428 50.0682C95.2591 49.7617 106.249 46.212 115.605 39.8417C120.438 36.5077 124.625 32.3234 127.96 27.4928C128.54 26.721 127.574 26.528 126.995 26.6245C126.416 26.721 124.678 26.9139 124.196 27.5892C118.889 35.3647 111.35 41.3516 102.573 44.762C92.6305 48.621 81.7226 49.0069 71.3939 46.8845C68.374 46.3188 65.4042 45.5123 62.5131 44.4726C60.0999 43.7008 57.3971 42.736 56.2387 40.3241C55.0803 37.9122 51.6053 40.6135 52.0879 41.4818Z" fill="#012B27"/>
<path d="M82.8808 131.012C87.8038 125.416 94.5609 121.75 101.608 119.531C108.389 117.162 115.649 116.499 122.748 117.601C126.671 118.292 130.414 119.769 133.752 121.943C135.297 122.908 138.965 120.882 137.034 119.627C123.23 110.655 104.407 113.646 90.6997 121.075C86.4592 123.332 82.6388 126.302 79.4057 129.854C79.2635 129.995 79.1604 130.171 79.1066 130.364C79.0527 130.557 79.05 130.761 79.0987 130.956C79.1473 131.15 79.2457 131.329 79.3841 131.474C79.5226 131.619 79.6963 131.726 79.8884 131.783C80.4092 131.95 80.9667 131.966 81.4962 131.83C82.0258 131.693 82.5059 131.41 82.8808 131.012Z" fill="#012B27"/>
<path d="M40.7943 84.703C53.2759 88.5595 66.2465 90.6063 79.3097 90.781C96.3955 91.1669 113.578 88.4656 129.409 81.9052C139.312 77.8484 148.527 72.2833 156.727 65.4078C157.306 64.8289 157.113 64.2501 156.341 64.0571C155.281 63.9199 154.209 64.1963 153.348 64.8289C139.987 76.1118 123.861 83.6372 106.628 86.6325C92.043 89.1718 77.1404 89.3021 62.5135 87.0184C56.2963 86.0953 50.1631 84.6758 44.1728 82.7735C43.1505 82.5416 42.078 82.7144 41.1804 83.2559C40.6978 83.5453 39.829 84.4136 40.7943 84.703Z" fill="#012B27"/>
<path d="M150.259 52.3837C155.085 52.3837 158.946 49.5859 162.035 46.1127C165.124 42.6396 167.923 39.2629 168.117 34.6321C168.117 34.3426 165.317 34.6321 165.317 35.4039C165.124 39.2629 162.904 42.4466 160.491 45.3409C159.287 46.8022 157.927 48.1285 156.436 49.2964C155.27 50.4583 153.733 51.1752 152.093 51.3224C151.404 51.3082 150.729 51.5107 150.162 51.9013C149.776 52.0942 149.679 52.3837 150.259 52.3837Z" fill="#012B27"/>
<path d="M34.7127 129.661L35.0023 131.108C35.195 132.29 35.195 133.496 35.0023 134.678C34.7701 135.272 34.4442 135.826 34.037 136.318L33.2647 137.283H33.0717V137.186L32.7821 136.704L32.0098 134.774C31.6237 133.52 31.4307 133.038 31.0445 133.327C30.6584 133.617 30.3688 134.485 30.4654 136.028C30.4896 136.452 30.5543 136.872 30.6584 137.283C30.6895 137.516 30.7545 137.743 30.8515 137.958V138.247L31.0445 138.73C31.2026 139.106 31.4538 139.437 31.7746 139.69C32.0954 139.943 32.4753 140.111 32.8786 140.177C33.1117 140.224 33.3519 140.222 33.5843 140.172C33.8168 140.122 34.0366 140.026 34.23 139.887L34.8092 139.502L35.2919 139.116L35.871 138.44L36.4502 137.765C36.8483 137.232 37.173 136.648 37.4155 136.028C37.8815 134.723 37.9154 133.303 37.512 131.976C37.3069 131.444 37.1455 130.895 37.0294 130.336L36.4502 128.889C36.1822 128.462 35.8574 128.072 35.4849 127.731L34.3266 127.056C33.9587 126.979 33.5785 126.982 33.2119 127.065C32.8453 127.148 32.5011 127.31 32.2029 127.539C31.9013 127.893 31.6421 128.282 31.4307 128.696C30.9772 129.766 30.909 130.959 31.2376 132.073C31.7203 133.424 31.9133 131.301 32.7821 129.372C33.6508 127.442 34.8092 129.661 34.7127 129.661Z" fill="#012B27"/>
<path d="M170.723 34.6321H170.433C169.45 34.493 168.481 34.267 167.537 33.9567C166.334 33.511 165.171 32.9623 164.062 32.3166L163.194 31.8343H163C163 31.7831 163.021 31.734 163.057 31.6978C163.093 31.6616 163.142 31.6413 163.194 31.6413C163.097 31.5448 163.387 31.5448 163.483 31.5448H163.773C163.863 31.5525 163.953 31.539 164.037 31.5055C164.121 31.472 164.195 31.4194 164.255 31.3519C164.545 31.2554 164.545 31.0624 164.448 30.8695C164.145 30.596 163.781 30.3977 163.387 30.2906L162.228 30.0977C161.705 30.0199 161.171 30.0867 160.684 30.2906C160.271 30.5902 159.993 31.0412 159.911 31.5448C159.952 32.0895 160.117 32.6176 160.394 33.0884C160.572 33.4146 160.84 33.6826 161.166 33.8603L161.939 34.4391L163.097 35.2109C164.832 36.2312 166.783 36.8263 168.792 36.9475H170.433C170.753 36.9557 171.072 36.9002 171.37 36.7843C171.668 36.6684 171.94 36.4943 172.171 36.2722C172.452 35.8634 172.61 35.3829 172.627 34.8873C172.644 34.3917 172.519 33.9015 172.267 33.4744C171.776 32.642 171.119 31.9195 170.337 31.3519C169.94 31.033 169.479 30.8028 168.985 30.6765C168.439 30.5691 167.874 30.6023 167.344 30.773C166.089 31.2554 168.02 31.3519 169.371 32.5096C169.742 32.8153 170.067 33.1727 170.337 33.5708L170.626 34.0532C170.716 34.2027 170.781 34.3656 170.819 34.5356C170.793 34.5732 170.76 34.6059 170.723 34.6321Z" fill="#012B27"/>
<path d="M14.7308 128.503H14.6342C14.8351 128.112 15.0956 127.754 15.4065 127.442H15.31L16.0822 126.574C16.1687 126.532 16.2364 126.459 16.2721 126.37C16.3078 126.281 16.3089 126.181 16.2753 126.091C16.2534 126.006 16.2032 125.932 16.133 125.879C16.0628 125.826 15.9768 125.799 15.8891 125.802H15.1169L14.4412 126.188L13.5724 127.056L12.9932 127.828C12.8283 128.1 12.6986 128.392 12.6071 128.696C12.5106 128.793 12.7036 128.986 12.8002 129.082H13.4759L14.3447 128.793C14.5228 128.679 14.6584 128.509 14.7308 128.31V128.503Z" fill="#012B27"/>
<path d="M13.9588 137.379C13.6309 136.681 13.4346 135.929 13.3796 135.16V133.809C13.4761 133.423 12.8004 133.327 12.5108 133.327L11.7386 133.616C11.6405 133.66 11.5543 133.727 11.4871 133.811C11.42 133.895 11.3738 133.993 11.3525 134.099C11.2238 134.799 11.1913 135.513 11.2559 136.221C11.397 136.799 11.6248 137.352 11.9317 137.861C12.0282 138.054 12.1247 138.054 12.3178 138.151H13.09C13.3796 138.054 13.6692 137.958 13.7657 137.765C13.8622 137.572 14.0553 137.379 13.9588 137.282V137.379Z" fill="#012B27"/>
<path d="M19.5574 142.589L19.0747 142.396H18.7852L18.0129 142.01C17.4454 141.781 16.9226 141.455 16.4684 141.045H15.6962L14.924 141.238C14.8274 141.335 14.5378 141.528 14.5378 141.72C14.5378 141.795 14.5553 141.869 14.5888 141.936C14.6223 142.003 14.671 142.061 14.7309 142.106C15.8191 142.875 17.0254 143.462 18.3025 143.843H19.0747L19.7505 143.457C19.847 143.361 20.04 143.168 19.9435 142.975C19.847 142.782 19.7505 142.685 19.5574 142.685V142.589Z" fill="#012B27"/>
<path d="M30.5614 137.283C29.8114 138.827 28.6844 140.158 27.2841 141.153C25.8839 142.148 24.2556 142.774 22.5494 142.975C22.1633 143.071 21.3911 143.264 21.2945 143.747C21.198 144.229 21.9703 144.229 22.2598 144.229C24.4104 144.017 26.4763 143.283 28.2769 142.088C30.0775 140.894 31.5579 139.277 32.5885 137.379C33.0712 136.414 30.9475 136.607 30.5614 137.283Z" fill="#012B27"/>
<path d="M21.8737 123.004C22.7745 122.699 23.739 122.633 24.6731 122.811C25.6669 123.123 26.61 123.578 27.4724 124.162C29.2259 125.267 30.5529 126.934 31.2371 128.889C31.4302 129.661 33.5538 129.082 33.3608 128.31C33.008 127.219 32.4511 126.204 31.7198 125.32C30.8915 124.364 29.9135 123.55 28.8239 122.908C27.8126 122.278 26.7034 121.822 25.5418 121.557C24.2174 121.361 22.8658 121.459 21.5841 121.847C21.198 121.943 20.5223 122.232 20.6188 122.715C20.7154 123.197 21.5841 123.101 21.8737 123.004Z" fill="#012B27"/>
<path d="M28.0524 133.231C26.6635 133.438 25.2445 133.202 23.9981 132.555C22.6314 131.896 21.5141 130.813 20.8126 129.468C20.6196 129.082 20.0404 129.082 19.5578 129.179C19.0751 129.275 18.4959 129.661 18.689 130.047C19.5438 131.668 20.8949 132.973 22.5449 133.771C24.1948 134.57 26.057 134.82 27.8593 134.485C28.2454 134.485 28.9212 134.292 29.0177 133.713C29.1142 133.134 28.4385 133.134 28.0524 133.231Z" fill="#012B27"/>
<path d="M22.3571 123.776H22.9362C22.9362 123.776 23.2258 123.872 23.0328 123.776H23.3224L24.2877 124.162C24.8748 124.41 25.4265 124.734 25.9287 125.127L26.5078 125.32L27.2801 125.127C27.4731 125.03 28.2454 124.644 27.8593 124.355C26.6701 123.391 25.2297 122.789 23.7085 122.618C23.4536 122.583 23.1942 122.599 22.9455 122.665C22.6969 122.731 22.464 122.847 22.2605 123.004C22.164 123.101 21.9709 123.197 21.9709 123.39C22.0088 123.457 22.0657 123.511 22.1345 123.545C22.2033 123.58 22.2808 123.593 22.3571 123.583V123.776Z" fill="#012B27"/>
<path d="M17.7234 126.767C16.0563 125.6 14.5334 124.24 13.1865 122.715C12.8543 122.316 12.6061 121.854 12.4569 121.356C12.3076 120.859 12.2602 120.337 12.3177 119.821C12.3344 119.333 12.399 118.848 12.5108 118.373C12.6073 118.084 12.6073 117.795 12.8003 117.602C12.9934 117.409 13.283 117.119 12.7038 117.312C12.1246 117.505 12.3177 117.505 12.6073 117.602L12.8969 117.891L13.4761 118.47L14.5379 119.628L16.7581 121.557C18.389 122.64 20.2316 123.363 22.1637 123.68C22.4336 123.735 22.7127 123.73 22.9801 123.663C23.2475 123.596 23.4963 123.47 23.7082 123.294C23.9978 123.004 23.9013 122.618 23.4186 122.522C21.6911 122.228 20.0459 121.57 18.5921 120.592C17.0477 119.531 15.8893 117.891 14.4414 116.733C14.0681 116.422 13.6062 116.235 13.1211 116.201C12.636 116.166 12.1523 116.285 11.7385 116.54C11.0446 117.017 10.5608 117.743 10.3871 118.566C10.1795 119.484 10.1144 120.427 10.194 121.364C10.3413 122.234 10.7446 123.04 11.3524 123.68C12.768 125.236 14.3547 126.627 16.0824 127.828C16.6615 128.214 18.5921 127.346 17.7234 126.767Z" fill="#012B27"/>
<path d="M13.1863 128.214C11.0573 128.361 8.9209 128.065 6.91191 127.345C5.07784 126.863 2.56806 125.995 0.830524 127.345C0.463674 127.614 0.197619 127.997 0.0750773 128.435C-0.047464 128.872 -0.0193817 129.338 0.154815 129.757C0.621491 130.531 1.2885 131.164 2.08541 131.59C3.65596 132.393 5.35465 132.915 7.10496 133.134C9.05737 133.386 10.9515 133.974 12.7037 134.871C12.9382 134.98 13.1993 135.021 13.456 134.987C13.7127 134.952 13.9542 134.845 14.1516 134.678C14.5378 134.485 14.7308 133.906 14.3447 133.713C11.6419 132.073 8.45638 132.073 5.46396 131.205L3.53336 130.24C2.95418 129.95 1.89235 129.179 2.08541 128.407C2.27847 127.635 3.43683 128.214 3.82295 128.31L6.62232 128.986C8.66743 129.69 10.8459 129.921 12.9933 129.661C13.4759 129.661 14.1516 129.371 14.1516 128.889C14.1516 128.407 13.5725 128.117 13.1863 128.214Z" fill="#012B27"/>
<path d="M11.9308 137.572C12.1239 137.186 11.9308 137.572 11.9308 137.476C11.9308 137.379 12.1239 137.379 12.0274 137.476L11.6413 137.669L11.3517 137.862L10.7725 138.151L7.97312 139.598C6.90364 140.161 5.90001 140.84 4.98069 141.624C4.50426 141.923 4.09517 142.317 3.77942 142.782C3.46368 143.247 3.24818 143.773 3.14663 144.325C2.95357 147.413 6.42864 148.281 8.74536 147.22C10.1304 146.43 11.4252 145.492 12.6066 144.422L15.5024 142.396L16.7573 141.721H17.5296C17.9157 141.721 18.5914 141.431 18.6879 140.949C18.6776 140.837 18.6431 140.729 18.5868 140.632C18.5304 140.535 18.4537 140.452 18.3618 140.388C18.27 140.323 18.1652 140.28 18.0548 140.26C17.9444 140.24 17.8311 140.245 17.7226 140.273C15.993 140.63 14.3722 141.39 12.9927 142.492L8.64883 145.676L7.97312 146.255H7.87659L7.29741 146.448C7.04084 146.475 6.78143 146.448 6.53613 146.368C6.29082 146.288 6.06514 146.157 5.87382 145.984C5.68251 145.811 5.52986 145.6 5.42586 145.364C5.32186 145.128 5.26885 144.873 5.27028 144.615C5.17375 143.554 6.13905 142.975 6.81476 142.396L9.42107 140.756L12.2204 139.116C12.8782 138.777 13.4673 138.319 13.958 137.765C14.2476 137.283 13.7649 136.993 13.2823 136.897C13.0153 136.862 12.7441 136.908 12.5033 137.028C12.2625 137.148 12.0632 137.338 11.9308 137.572Z" fill="#012B27"/>
<path d="M18.5926 142.299C17.3377 143.939 15.8898 145.483 14.5383 147.027C13.1869 148.57 13.0904 148.57 13.38 149.535C13.5728 150.11 13.9538 150.604 14.4617 150.937C14.9695 151.269 15.5746 151.421 16.1793 151.368C17.4665 151.196 18.6398 150.54 19.4614 149.535C20.4945 148.243 21.3996 146.854 22.1642 145.387L23.5156 143.071L24.0948 142.203L24.3844 141.913H24.2879C24.5774 141.624 25.0601 141.238 24.7705 140.756C24.573 140.588 24.3316 140.481 24.0749 140.447C23.8182 140.413 23.557 140.453 23.3226 140.563C22.3398 141.377 21.5488 142.399 21.0058 143.554L18.5926 147.606C18.0134 148.377 16.5655 150.5 15.6002 149.246L15.4071 148.763C15.4071 148.667 15.6967 148.667 15.4071 148.86H15.5036C15.4071 148.956 15.5036 148.667 15.5036 148.86L16.2759 147.895L20.4267 143.071C20.4948 142.988 20.5421 142.889 20.5645 142.784C20.5869 142.679 20.5838 142.57 20.5555 142.466C20.5271 142.362 20.4744 142.267 20.4016 142.187C20.3288 142.108 20.2381 142.047 20.1371 142.01C19.8688 141.928 19.5834 141.921 19.3113 141.989C19.0392 142.057 18.7907 142.197 18.5926 142.396V142.299Z" fill="#012B27"/>
<path d="M168.31 12.6355C167.626 12.8247 166.975 13.1175 166.379 13.5038L165.511 14.1791C165.412 14.223 165.326 14.2897 165.259 14.3736C165.192 14.4575 165.146 14.5562 165.124 14.6615C165.028 14.758 165.124 14.9509 165.317 15.0474H165.993C166.283 14.9509 166.572 14.9509 166.765 14.758L167.634 14.0826L168.02 13.8897C168.046 13.8897 168.07 13.8795 168.089 13.8614C168.107 13.8433 168.117 13.8188 168.117 13.7932L168.503 13.6003H168.6C168.889 13.5038 169.179 13.4073 169.275 13.2144C169.368 13.1743 169.446 13.1063 169.498 13.0197C169.55 12.9332 169.573 12.8325 169.565 12.732C169.372 12.2496 168.696 12.3461 168.31 12.4425V12.6355Z" fill="#012B27"/>
<path d="M178.349 13.3108C177.826 12.8976 177.239 12.5718 176.612 12.3461C175.911 12.2023 175.202 12.1056 174.488 12.0566L173.619 12.2496C173.426 12.3461 173.137 12.4425 173.04 12.6355C172.944 12.8285 173.233 13.3108 173.619 13.3108H175.55L175.84 13.5038L176.708 13.9862C176.805 14.1791 177.191 14.1791 177.384 14.0826L178.156 13.8897C178.349 13.6967 178.542 13.6003 178.542 13.4073C178.542 13.3324 178.525 13.2586 178.491 13.1916C178.458 13.1246 178.409 13.0663 178.349 13.0214V13.3108Z" fill="#012B27"/>
<path d="M183.175 20.1607C182.979 18.9481 182.588 17.7752 182.017 16.6875C181.92 16.4946 181.824 16.3981 181.631 16.3981C181.382 16.3012 181.107 16.3012 180.858 16.3981C180.575 16.4668 180.311 16.5987 180.086 16.784C179.99 16.8805 179.796 17.0734 179.893 17.2664C180.479 18.3475 180.871 19.523 181.051 20.7395C181.051 20.9325 181.341 21.0289 181.437 21.0289C181.719 21.1245 182.025 21.1245 182.306 21.0289C182.596 20.9325 183.175 20.643 183.175 20.1607Z" fill="#012B27"/>
<path d="M170.82 33.4742C173.64 33.3934 176.36 32.4136 178.583 30.6779C180.806 28.9422 182.415 26.5415 183.176 23.8266C183.369 23.0548 181.245 23.3442 181.052 24.116C180.563 26.2479 179.414 28.1718 177.77 29.6152C176.066 31.1588 173.887 32.0774 171.592 32.22C171.109 32.22 170.434 32.3165 170.241 32.7989C170.048 33.2812 170.434 33.4742 170.82 33.4742Z" fill="#012B27"/>
<path d="M160.201 20.2573C159.708 21.2815 159.445 22.4009 159.429 23.5375C159.459 24.5997 159.688 25.6469 160.105 26.6247C160.798 28.1614 161.708 29.5909 162.807 30.8696C163.29 31.4485 165.317 30.7732 164.738 30.0978C163.776 28.9167 162.966 27.6203 162.325 26.2388C161.878 25.3346 161.616 24.3508 161.553 23.3445C161.478 22.3028 161.714 21.2625 162.228 20.3537C162.614 19.389 160.491 19.5819 160.201 20.2573Z" fill="#012B27"/>
<path d="M172.654 27.9753C173.162 26.3166 173.138 24.5403 172.583 22.8963C172.029 21.2523 170.974 19.8232 169.565 18.81C168.889 18.4241 166.958 19.2924 167.924 19.9677C169.164 20.9111 170.081 22.2158 170.547 23.7018C171.014 25.1879 171.008 26.7822 170.53 28.2647C170.433 28.7471 171.206 28.8435 171.495 28.7471C171.746 28.7613 171.995 28.6937 172.203 28.5545C172.412 28.4153 172.57 28.212 172.654 27.9753Z" fill="#012B27"/>
<path d="M160.78 22.0902C160.775 23.4931 161.177 24.8673 161.939 26.0457C162.132 26.4316 162.711 26.3352 163.097 26.2387L163.773 25.9493C163.869 25.8528 164.062 25.6598 163.966 25.5633C163.29 24.3181 162.926 22.9279 162.904 21.5114C162.904 21.3184 162.615 21.3184 162.518 21.2219H161.746C161.456 21.3184 160.78 21.5114 160.78 21.9937V22.0902Z" fill="#012B27"/>
<path d="M167.73 15.9157C166.859 14.2633 165.859 12.6825 164.738 11.1883C164.186 10.5416 163.535 9.98778 162.807 9.54824C161.94 9.11644 160.975 8.91698 160.008 8.96938C159.02 8.93352 158.035 9.0976 157.112 9.45176C156.436 9.74119 155.664 10.4165 155.857 11.2848C156.213 12.0997 156.702 12.8496 157.305 13.5038C157.884 14.2756 158.463 14.9509 158.946 15.7227C160.043 17.5637 160.642 19.6583 160.683 21.8007C160.683 22.476 162.807 22.0901 162.807 21.2218C162.727 19.2632 162.198 17.349 161.263 15.6262C160.84 14.7668 160.322 13.9577 159.718 13.2143L158.849 12.0566C158.506 11.6787 158.214 11.257 157.981 10.8024C157.787 10.32 158.077 10.32 158.463 10.2236H159.815C160.283 10.2481 160.741 10.3727 161.157 10.589C161.574 10.8054 161.939 11.1084 162.228 11.4778C163.582 12.985 164.719 14.6735 165.606 16.4945C165.993 17.2663 168.02 16.591 167.73 15.9157Z" fill="#012B27"/>
<path d="M169.951 12.6355C170.626 10.4165 170.24 8.10109 169.951 5.78567C169.742 4.60801 169.677 3.40935 169.758 2.21605C169.854 2.0231 169.854 1.83015 169.951 1.6372L170.144 1.44425C169.951 1.44425 169.951 1.44424 170.047 1.54072L170.53 1.83015L171.012 2.50548C171.978 4.24205 171.978 6.36453 172.074 8.29405C172.065 10.2958 172.392 12.285 173.04 14.1791C173.426 15.0474 175.453 14.4685 175.067 13.6002C173.619 10.1271 174.777 6.17157 173.426 2.69843C172.75 0.961865 171.302 -0.678228 169.275 0.286533C167.248 1.25129 167.634 3.66319 167.827 5.49624C168.02 7.32929 168.503 10.4165 167.827 12.8284C167.634 13.3108 168.406 13.5038 168.792 13.5038C169.042 13.4647 169.278 13.3651 169.48 13.2137C169.681 13.0623 169.843 12.8638 169.951 12.6355Z" fill="#012B27"/>
<path d="M177.963 14.372C178.521 14.0873 178.989 13.653 179.315 13.1178L180.859 10.8989C181.481 10.0209 182.158 9.18315 182.886 8.39049C183.19 7.9899 183.547 7.63283 183.948 7.32925C184.214 7.07533 184.55 6.90726 184.913 6.84687C185.975 6.75039 186.554 7.9081 186.554 8.77639C186.515 9.53357 186.207 10.252 185.686 10.8024C184.527 11.9601 183.272 13.1178 182.114 14.372C180.956 15.6262 179.315 17.1698 178.832 18.9064C178.349 20.6429 179.411 19.5817 179.797 19.5817C180.053 19.5617 180.298 19.4694 180.503 19.3157C180.708 19.162 180.865 18.9531 180.956 18.7134C181.2 18.0746 181.56 17.486 182.017 16.9769C182.642 16.1921 183.319 15.4507 184.045 14.7579C185.203 13.5037 186.554 12.346 187.713 10.9953C188.871 9.64468 188.871 6.17153 186.361 5.4962C183.852 4.82087 181.824 6.94334 180.376 8.67991L178.156 11.6707L177.288 12.8284L176.998 13.2143H176.901C177.094 13.1178 177.094 13.0213 176.998 13.1178C176.892 13.1492 176.794 13.203 176.71 13.2756C176.627 13.3482 176.56 13.4378 176.514 13.5384C176.469 13.639 176.445 13.7483 176.445 13.8588C176.445 13.9693 176.469 14.0786 176.515 14.1791C176.805 14.565 177.577 14.4685 177.963 14.2755V14.372Z" fill="#012B27"/>
<path d="M182.017 21.6076L187.133 18.4239L187.809 17.9416H188.002L188.291 17.7486C188.388 17.7486 188.774 17.5556 188.388 17.7486C188.002 17.9416 188.484 17.6521 188.581 17.6521C188.677 17.6521 188.291 17.7486 188.388 17.7486C188.484 17.7486 188.098 17.5556 188.195 17.7486C188.468 17.9593 188.651 18.2667 188.704 18.6075C188.758 18.9484 188.679 19.297 188.484 19.5816C188.239 19.9712 187.909 20.3008 187.519 20.5464L187.229 20.7394L186.843 20.9323L182.596 22.7654L180.279 23.7301C179.695 23.97 179.168 24.3318 178.735 24.7914C178.349 25.1773 178.542 25.6596 179.024 25.8526C179.277 25.9382 179.549 25.9473 179.807 25.8786C180.064 25.8099 180.296 25.6666 180.472 25.4667H180.569C180.762 25.2737 180.376 25.5632 180.569 25.3702L181.534 24.8878L183.754 23.9231C185.325 23.3879 186.844 22.7097 188.291 21.8971C189.339 21.3805 190.188 20.5327 190.704 19.4852C190.901 18.9914 190.941 18.4496 190.82 17.9323C190.699 17.4149 190.423 16.9469 190.029 16.5909C188.967 15.7226 187.712 16.205 186.747 16.8803L181.052 20.4499C180.665 20.6429 180.279 21.1253 180.569 21.5112C180.74 21.7224 180.985 21.8601 181.254 21.896C181.524 21.9319 181.797 21.8632 182.017 21.7041V21.6076Z" fill="#012B27"/>
<path d="M37.1257 134.292C42.824 132.352 48.0293 129.191 52.3774 125.03C57.0108 120.689 60.0998 115.286 62.8026 109.497C63.8645 107.375 59.6172 107.375 58.8449 109.015C56.3351 114.321 53.6323 119.145 49.385 123.293C45.6878 126.917 41.239 129.683 36.3534 131.397C35.4847 131.687 34.3263 132.362 34.6159 133.423C34.9055 134.485 36.3534 134.581 37.1257 134.292Z" fill="#012B27"/>
<path d="M64.3474 112.488L65.3127 111.716L63.189 110.559C61.2615 113.202 60.4 116.474 60.7758 119.724C60.8723 120.978 62.8029 120.303 63.2855 119.82L70.2357 112.778L67.7259 112.392C67.9347 115.933 67.8054 119.487 67.3398 123.004C67.2433 124.065 68.7877 123.969 69.4635 123.776C71.3272 123.002 72.863 121.603 73.8073 119.82L71.1045 120.013L71.7802 124.933C71.8767 125.995 72.0698 127.249 73.1316 127.828C76.0275 129.468 77.765 124.548 78.7303 122.811L76.0275 123.004C76.5101 125.609 77.0893 128.117 77.765 130.626C78.0546 131.59 79.8887 131.397 80.3713 130.722C81.2815 129.278 82.2809 127.893 83.3637 126.574L80.9505 126.767C82.1159 129.093 83.472 131.32 85.0048 133.423C85.777 134.485 88.3833 133.423 87.5145 132.169C86.0507 130.021 84.6975 127.799 83.4603 125.512C82.9776 124.644 81.5297 125.223 81.047 125.705C79.9348 126.967 78.9336 128.323 78.0546 129.757H80.5644C79.8887 127.249 79.3095 124.741 78.7303 122.232C78.1511 119.724 76.5101 121.653 76.0275 122.425L74.3865 125.223L74.0969 125.898C73.7108 126.284 74.0969 126.381 75.0622 125.995C74.9588 125.664 74.8297 125.341 74.6761 125.03C74.3177 123.115 74.0599 121.183 73.9038 119.241C73.7108 117.891 71.4906 118.663 71.1045 119.434C70.4296 120.556 69.4155 121.435 68.2086 121.943L70.2357 122.715C70.6215 119.191 70.7183 115.642 70.5253 112.102C70.4287 110.752 68.5947 111.041 67.919 111.813L60.9688 118.856H63.5751C63.2659 116.15 63.9899 113.428 65.6023 111.234C66.5676 109.883 64.3474 109.497 63.4786 110.173L62.5133 110.944C61.0654 112.102 63.2855 113.163 64.3474 112.295V112.488Z" fill="#012B27"/>
<path d="M70.1391 110.752L76.124 104.867L73.5177 105.349L72.3593 117.505C72.2628 118.084 74.7726 117.312 75.0622 117.023C77.7006 113.871 80.2104 110.591 82.5915 107.182L79.7921 107.664L76.7032 121.171C76.5101 121.943 79.0199 121.171 79.3095 120.882C81.7107 118.008 83.6633 114.788 85.1013 111.33L82.3019 111.909L81.3366 125.609C81.3366 126.188 83.8464 125.416 84.136 124.934L88.7694 116.444L85.97 117.023C85.8715 121.01 86.2605 124.995 87.1284 128.889C87.3214 129.564 89.7347 128.696 89.9278 128.31L93.4028 120.882L90.6035 121.46C92.5341 125.127 91.8584 130.722 95.8161 133.038C96.3953 133.327 98.2293 132.941 98.5189 132.266C99.1675 130.399 99.7153 128.499 100.16 126.574L97.3606 127.249L101.511 134.195C101.994 134.871 104.6 133.809 104.311 133.423L100.16 126.477C99.7738 125.898 97.4571 126.477 97.3606 127.056C96.961 128.993 96.4124 130.896 95.7195 132.748L98.4224 132.073C94.6577 129.757 95.2369 124.258 93.4028 120.785C93.0167 120.11 90.8931 120.785 90.6035 121.364L87.2249 128.696L89.9278 128.117C89.056 124.224 88.667 120.239 88.7694 116.251C88.7694 115.575 86.1631 116.444 85.97 116.926L81.3366 125.416L84.136 124.837L85.1013 111.138C85.1978 110.559 82.5915 111.234 82.3019 111.813C80.9405 115.157 79.0859 118.279 76.7997 121.075L79.406 120.689L82.5915 107.182C82.7845 106.41 80.1782 107.278 79.7921 107.664C77.4754 110.945 75.0622 114.128 72.4559 117.216L75.1587 116.733L76.317 104.577C76.317 103.902 73.8073 104.77 73.6142 105.06L67.6294 110.945C67.1467 111.33 68.0155 111.427 68.3051 111.427C68.9606 111.347 69.5886 111.116 70.1391 110.752Z" fill="#012B27"/>
<path d="M137.614 7.32933C137.614 5.79411 137.003 4.32177 135.917 3.2362C134.831 2.15064 133.358 1.54077 131.822 1.54077C130.286 1.54077 128.813 2.15064 127.726 3.2362C126.64 4.32177 126.03 5.79411 126.03 7.32933C126.03 8.86456 126.64 10.3369 127.726 11.4225C128.813 12.508 130.286 13.1179 131.822 13.1179C133.358 13.1179 134.831 12.508 135.917 11.4225C137.003 10.3369 137.614 8.86456 137.614 7.32933Z" fill="#BFF007"/>
<path d="M48.7086 171.917C50.4146 171.917 51.7975 170.535 51.7975 168.83C51.7975 167.125 50.4146 165.743 48.7086 165.743C47.0026 165.743 45.6196 167.125 45.6196 168.83C45.6196 170.535 47.0026 171.917 48.7086 171.917Z" fill="#BFF007"/>
<path d="M162.614 57.497C163.599 57.8064 164.458 58.4231 165.066 59.2566C165.674 60.09 165.999 61.0963 165.993 62.1278L167.537 60.9701C166.089 60.9701 164.834 59.9089 163.386 60.1018C162.743 60.1216 162.123 60.3482 161.619 60.7479C161.115 61.1476 160.753 61.6992 160.587 62.3208C160.6 63.3784 160.975 64.3998 161.649 65.2151C161.938 65.6974 163.097 66.9516 162.614 67.627L164.545 67.0481C163.487 66.6296 162.312 66.6146 161.244 67.006C160.176 67.3974 159.289 68.1679 158.753 69.1706C158.444 70.2475 158.478 71.3938 158.849 72.4508C158.946 72.8367 159.332 73.8014 159.139 74.1873C158.946 74.5732 159.236 74.2838 158.946 74.3803H157.884C155.471 74.1873 153.54 75.9239 152.672 78.1428C151.803 80.3618 152.961 84.0279 151.803 86.7292L154.409 86.3433C153.4 85.134 152 84.315 150.451 84.0279C149.718 83.9425 148.976 84.0929 148.334 84.4572C147.692 84.8215 147.182 85.3807 146.88 86.0539C146.301 87.3081 146.783 88.7552 146.301 90.1059C146.197 90.395 146.033 90.6583 145.818 90.8777H146.108L145.528 90.6847C144.903 90.3649 144.2 90.2309 143.501 90.2988C142.811 90.4831 142.176 90.8349 141.654 91.3229C141.132 91.811 140.739 92.4202 140.509 93.0966C140.316 93.6755 140.219 94.2543 140.026 94.8332C139.942 95.2324 139.812 95.6208 139.64 95.9909C139.543 96.1839 139.254 96.2803 139.447 96.1839C139.64 96.0874 138.868 95.8944 138.578 95.798C138.175 95.6459 137.753 95.5486 137.323 95.5085C136.612 95.4214 135.892 95.5926 135.296 95.9909C134.725 96.4021 134.289 96.9727 134.041 97.631L133.752 98.4993C133.732 98.7044 133.666 98.9024 133.559 99.0782C133.172 99.2711 133.366 99.3676 134.041 99.2711C134.717 99.1746 130.566 99.3676 131.531 100.525C132.023 101.028 132.691 101.319 133.394 101.337C134.097 101.355 134.779 101.098 135.296 100.622C135.754 100.225 136.117 99.7303 136.358 99.1746C136.551 98.8852 136.551 98.4993 136.744 98.2099C136.937 97.9204 136.841 97.9204 136.937 97.7275C137.034 97.5345 137.034 97.4381 136.648 97.631C137.229 98.0471 137.911 98.3019 138.623 98.3697C139.335 98.4374 140.052 98.3157 140.702 98.0169C141.267 97.673 141.749 97.2099 142.116 96.6599C142.483 96.11 142.725 95.4865 142.825 94.8332C142.948 94.1587 143.176 93.5076 143.501 92.9037L143.791 92.4213H143.694C143.984 92.4213 144.466 92.8072 144.853 92.9037C145.477 93.0233 146.122 92.9697 146.717 92.7485C147.313 92.5274 147.837 92.1473 148.231 91.6495C149.039 90.6404 149.451 89.371 149.39 88.0799C149.486 87.5975 149.293 86.2468 149.776 86.1504C150.258 86.0539 151.513 87.1151 151.899 87.501C152.087 87.6783 152.314 87.8088 152.562 87.8819C152.81 87.9549 153.071 87.9685 153.325 87.9215C153.579 87.8745 153.818 87.7682 154.023 87.6113C154.229 87.4544 154.394 87.2514 154.506 87.0186C155.471 84.6067 154.795 82.1948 155.085 79.6865C155.224 78.67 155.623 77.7065 156.243 76.8887C156.919 76.1168 157.788 76.5028 158.753 76.5028C159.718 76.5028 162.325 75.0556 161.938 72.9331C161.552 70.8107 161.263 71.0036 161.359 70.1353C161.456 69.267 162.131 68.5917 163 69.0741C163.342 69.1902 163.712 69.1968 164.058 69.093C164.404 68.9893 164.709 68.7803 164.931 68.4952C166.282 66.7587 164.931 65.1186 163.966 63.575C163.729 63.2605 163.565 62.8984 163.483 62.5137V62.2243C163.483 62.2243 163.097 62.0313 163.579 62.2243C164.732 62.8492 166.034 63.1493 167.344 63.0926C167.923 63.0926 168.889 62.6102 168.889 61.9349C168.88 60.4014 168.35 58.9163 167.385 57.724C166.42 56.5317 165.078 55.7031 163.579 55.3745C162.131 54.9886 160.78 57.0146 162.614 57.497Z" fill="#BFF007"/>
<path d="M28.2448 79.0109C26.314 79.6703 24.4921 80.6132 22.8391 81.8087C22.5495 82.0982 22.0669 82.677 22.6461 83.0629C23.6617 83.5723 24.7937 83.8052 25.9281 83.7383L24.7697 82.7735C24.3717 83.6675 23.7867 84.4658 23.0541 85.1148C22.3214 85.7639 21.4582 86.2485 20.5224 86.5361C19.8467 86.6325 18.7849 87.4044 19.5571 87.9832L22.9357 90.4916V89.5268L20.3294 92.5176C19.9432 93 19.9432 93.4823 20.6189 93.6753L24.5767 94.5436L23.9975 94.1577L24.2871 100.911C24.2871 101.683 25.9281 101.393 26.2177 101.2C27.8514 100.465 29.2531 99.2971 30.2719 97.8238L27.5691 98.1132L30.2719 104.481C30.658 105.542 32.7817 104.867 33.0713 103.902C33.3609 102.937 34.7123 103.226 35.388 103.902C36.3562 104.938 37.0526 106.197 37.4151 107.568C37.7047 108.243 38.8631 108.05 39.3457 107.857C41.9779 106.723 44.2963 104.968 46.1028 102.744L43.6896 103.033C45.7167 106.507 49.5779 110.076 53.6322 107.182C55.0801 106.217 55.6593 104.481 56.7211 103.13C57.7829 101.779 57.4934 102.165 58.2656 102.358C59.2433 102.626 60.1838 103.015 61.065 103.516C61.9053 103.958 62.8283 104.22 63.7755 104.286C64.7227 104.353 65.6733 104.222 66.5672 103.902C67.9734 103.11 69.1917 102.024 70.1388 100.718C70.5452 100.137 71.0328 99.6173 71.5867 99.1744C72.1659 98.6921 72.552 99.078 73.1312 99.4639C73.8889 99.9922 74.7983 100.259 75.7216 100.224C76.6448 100.19 77.5316 99.8548 78.2473 99.2709C78.7832 98.6694 79.2675 98.024 79.6952 97.3414C79.7918 97.052 79.9848 96.6661 80.2744 96.5696C80.564 96.4731 80.9501 97.2449 81.3362 97.3414C83.9425 98.0167 86.4523 96.0872 88.0933 94.3506C89.7343 92.6141 86.5488 93 85.8731 93.7718C85.1974 94.5436 84.2321 95.6048 83.3634 95.7013C82.4946 95.7978 82.3015 95.4119 81.8189 95.2189C81.3286 95.0202 80.8034 94.9218 80.2744 94.9295C79.5886 95.0445 78.9374 95.3124 78.3693 95.7132C77.8011 96.114 77.3305 96.6375 76.9924 97.2449C76.7993 97.6308 76.3167 98.4991 76.0271 98.5956C75.7375 98.6921 76.3167 98.6921 76.1236 98.4991C75.9306 98.3062 75.641 98.2097 75.5444 98.1132L74.193 97.4379C73.4684 97.1906 72.6945 97.1229 71.9378 97.2405C71.1812 97.3582 70.4645 97.6576 69.8492 98.1132C68.7557 99.0448 67.7537 100.079 66.8568 101.2C66.5314 101.736 66.0635 102.17 65.5053 102.455C65.1497 102.548 64.7791 102.571 64.4147 102.521C64.0503 102.471 63.6993 102.35 63.3817 102.165C61.8372 101.49 60.3892 100.525 58.6517 100.525C57.8288 100.532 57.0184 100.727 56.2824 101.095C55.5463 101.463 54.904 101.994 54.4044 102.648C53.5356 103.709 52.5703 106.507 51.1224 106.507C49.6744 106.507 49.0953 105.542 48.4195 104.867C47.5731 103.976 46.858 102.968 46.2959 101.876C45.9098 101.2 44.2688 101.683 43.8826 102.165C42.3572 104.005 40.4459 105.487 38.2839 106.507L40.2145 106.796C39.4423 104.481 38.2839 101.972 35.6776 101.49C33.0713 101.007 30.8511 102.069 30.2719 104.191L33.0713 103.709L30.3685 97.4379C29.8858 96.3766 28.1483 97.052 27.6656 97.7273C26.9709 98.6132 26.1204 99.3652 25.1558 99.9462L27.0864 100.236L26.7969 93.3859C26.7969 93.1929 26.4107 93 26.2177 92.9035L22.2599 92.0352L22.5495 93.0964L25.1558 90.1057C25.4454 89.7198 25.542 89.3339 25.1558 89.0444L21.7773 86.5361L20.9085 88.0797C22.2898 87.7394 23.582 87.1069 24.6977 86.2248C25.8134 85.3427 26.7268 84.2316 27.376 82.9665C27.8587 82.0982 26.7969 82.0017 26.3142 82.0017C25.8097 81.9768 25.3162 81.8453 24.8663 81.6158L24.6732 82.7735C25.9034 81.8853 27.2313 81.1408 28.6309 80.5546C29.1136 80.4581 30.0789 80.0722 29.8858 79.3968C29.6927 78.7215 28.7274 78.9145 28.2448 79.0109Z" fill="#BFF007"/>
</svg>
