<?xml version="1.0" encoding="UTF-8"?>
<svg width="35px" height="42px" viewBox="0 0 35 42" version="1.1" xmlns="http://www.w3.org/2000/svg" xmlns:xlink="http://www.w3.org/1999/xlink">
    <title>Fill 1</title>
    <g id="Page-1" stroke="none" stroke-width="1" fill="none" fill-rule="evenodd">
        <path d="M34.8630355,0.745597983 C34.8315855,0.313647545 34.4731594,-0.0155911151 34.0518333,0.000570295867 C33.6151721,0.0246120642 23.1742901,0.553664532 17.2328383,5.10530554 C17.1084678,5.19599643 17.0155474,5.32542128 16.9678525,5.47407955 L15.5173835,9.66522759 L14.3087676,7.85434818 C14.0706832,7.49959853 13.6030918,7.40089371 13.2481746,7.62995834 C12.7725258,7.93408671 1.72356708,15.3151767 3.00236069,33.9877503 C1.7499487,36.1899763 0.752905555,38.5352508 0.0315048124,40.975891 C-0.0268466438,41.1799789 -0.00345407787,41.3990261 0.0959643274,41.5858841 C0.194992857,41.7720742 0.363029455,41.9103144 0.56147639,41.9693503 C0.974745055,42.089292 1.40477839,41.8467373 1.52862903,41.4246707 C2.05405206,39.6319561 2.74595217,37.8956062 3.59471244,36.2395291 C8.13572933,26.2764867 23.492689,13.4775842 23.7205066,13.6644422 C24.0693157,13.4165448 24.5470439,13.5010917 24.795265,13.8543722 C25.0434861,14.2080533 24.9709692,14.7001081 24.6322968,14.9625641 C24.4998689,15.0668787 13.9655466,22.9842337 7.26760521,33.1059517 C6.89293428,33.6752073 6.53450819,34.2439287 6.19141722,34.8131844 C10.2150685,34.5324299 18.3090263,33.5547314 22.6986413,30.1649756 C22.8921498,30.0147146 23.0067734,29.7809751 23.0098924,29.5316086 C23.0128814,29.2826427 22.9037161,29.0463655 22.7143663,28.8908954 L21.0924817,27.5766121 L25.8019251,27.5202475 C25.9552764,27.51397 26.1039491,27.4644172 26.2309188,27.376264 C26.6441874,27.0955096 36.2508645,20.1396918 34.8630355,0.745597983 Z" id="Fill-1" fill="#FFFFFF"></path>
    </g>
</svg>