<?xml version="1.0" encoding="UTF-8"?>
<svg width="27px" height="32px" viewBox="0 0 27 32" version="1.1" xmlns="http://www.w3.org/2000/svg" xmlns:xlink="http://www.w3.org/1999/xlink">
    <title>Fill 1</title>
    <g id="Page-1" stroke="none" stroke-width="1" fill="none" fill-rule="evenodd">
        <g id="Artboard" transform="translate(-20.000000, -64.000000)" fill="#000000">
            <path d="M46.8943417,64.5680747 C46.8700803,64.2389696 46.5935801,63.9881211 46.2685571,64.0004345 C45.9317042,64.018752 37.8773095,64.4218396 33.2939038,67.8897566 C33.1979609,67.9588544 33.1262794,68.0574638 33.0894862,68.1707273 L31.970553,71.3639829 L31.0381921,69.9842653 C30.8545271,69.7139798 30.4938137,69.6387762 30.2200204,69.8133016 C29.8530913,70.0450184 21.3296089,75.6687061 22.3161068,89.8954288 C21.3499604,91.5733153 20.5808129,93.3601911 20.0243037,95.2197265 C19.9792897,95.375222 19.9973354,95.5421151 20.0740296,95.6844831 C20.1504231,95.8263423 20.2800513,95.9316681 20.4331389,95.9766478 C20.7519462,96.068032 21.0836862,95.8832284 21.1792281,95.5616538 C21.5845544,94.1957761 22.118306,92.8728428 22.7730639,91.6110698 C26.2761341,84.0201803 38.1229315,74.2686356 38.2986765,74.4110036 C38.5677578,74.2221294 38.936291,74.2865461 39.1277759,74.5557121 C39.3192607,74.8251835 39.2633191,75.2000824 39.0020575,75.4000488 C38.8998989,75.4795266 30.7734217,81.5117971 25.6064383,89.2235822 C25.3174064,89.6573008 25.0409063,90.0906124 24.7762361,90.524331 C27.8801957,90.3104228 34.124106,89.5655096 37.5103804,86.9828386 C37.6596584,86.8683539 37.7480823,86.6902668 37.7504884,86.5002732 C37.7527943,86.3105849 37.668581,86.1305642 37.5225112,86.0121108 L36.2713431,85.0107521 L39.9043422,84.9678076 C40.0226418,84.9630247 40.1373322,84.9252702 40.2352802,84.8581059 C40.5540874,84.6441978 47.9649526,79.3445271 46.8943417,64.5680747 Z" id="Fill-1"></path>
        </g>
    </g>
</svg>