<svg width="175" height="179" viewBox="0 0 175 179" fill="none" xmlns="http://www.w3.org/2000/svg">
<path d="M70.62 136.53C71.8346 137.64 73.3888 138.306 75.0299 138.42C76.4761 138.409 77.8744 137.9 78.9899 136.98L79.8 136.17C79.8 136.26 79.26 136.17 79.62 136.26H79.9799C80.6099 136.53 81.1499 136.98 81.6899 137.25C82.1989 137.594 82.774 137.827 83.3784 137.936C83.9829 138.044 84.6033 138.025 85.2 137.88C85.8562 137.709 86.4693 137.402 87 136.98L87.5399 136.62L88.4399 136.89C89.5331 137.384 90.6811 137.747 91.86 137.97C93.0987 138.083 94.3385 137.765 95.37 137.07C95.5872 136.781 95.8281 136.51 96.0899 136.26C96.4499 135.9 96.09 136.26 96 136.26H96.5399L98.8799 137.25C100.444 137.611 102.076 137.551 103.609 137.077C105.142 136.603 106.523 135.731 107.61 134.55L105.18 135.09C107.16 136.62 109.32 138.24 112.02 138.15C114.72 138.06 116.61 137.16 117.6 135.09L115.08 135.81C117.42 137.16 120.84 138.96 123.63 138.06C126.42 137.16 125.97 135 125.16 133.02L122.64 133.83C123.72 135.09 124.98 136.35 126.69 136.62C128.173 136.802 129.672 136.451 130.92 135.63C131.459 135.31 131.853 134.795 132.021 134.191C132.189 133.587 132.117 132.942 131.82 132.39C131.28 131.22 129.93 130.41 130.02 128.97L127.41 129.78C128.773 130.763 130.409 131.298 132.09 131.31C132.72 131.4 134.16 131.22 134.25 130.41C134.595 126.973 133.702 123.526 131.73 120.69L129.21 121.5C130.897 122.378 132.821 122.694 134.7 122.4C134.88 122.4 136.41 121.95 136.23 121.5C134.884 118.314 133.225 115.269 131.28 112.41L128.76 113.22C130.598 114.118 132.372 115.14 134.07 116.28C134.52 116.55 136.68 116.19 136.59 115.47C136.23 111.515 134.764 107.741 132.36 104.58L129.93 105.48L133.62 107.37C134.25 107.64 136.14 107.37 136.23 106.56C136.274 104.824 135.961 103.098 135.311 101.488C134.66 99.878 133.687 98.4186 132.45 97.2L130.02 98.1L134.7 102.6C135.06 102.96 137.4 102.51 137.22 101.79C136.31 97.5393 134.256 93.6181 131.28 90.45L128.76 91.44L134.25 96.21C134.61 96.57 136.86 96.03 136.77 95.4C136.086 91.9139 134.469 88.6788 132.09 86.04L129.66 86.94C131.381 88.0626 132.877 89.4973 134.07 91.17C134.43 91.62 136.77 90.99 136.68 90.36C136.054 87.4351 134.655 84.7313 132.63 82.53L130.56 83.52C131.83 83.6658 133.025 84.2001 133.98 85.05C134.34 85.5 136.68 84.96 136.5 84.24C135.374 79.979 133.549 75.9341 131.1 72.27L128.49 73.08L133.17 76.77C133.62 77.13 135.78 76.68 135.69 75.96C134.947 71.3493 133.025 67.0088 130.11 63.36L127.68 64.26L133.8 68.31C134.25 68.49 136.59 68.13 136.32 67.5C135.128 64.0382 133.559 60.7182 131.64 57.6L129.12 58.41L134.88 62.37C135.24 62.64 137.49 62.28 137.4 61.56C136.665 57.8593 134.774 54.4874 132 51.93L129.57 52.92L134.07 56.16C134.52 56.52 136.77 56.07 136.59 55.35C135.849 52.0439 134.636 48.8613 132.99 45.9L130.38 46.71L134.16 50.67C134.52 51.03 136.95 50.4 136.68 49.86L131.73 38.88L129.21 39.69C130.726 41.0985 132.541 42.1447 134.52 42.75C134.88 42.84 137.22 42.57 136.86 41.85L132.54 32.31L129.93 33.03C131.26 35.0193 132.901 36.7818 134.79 38.25C135.15 38.52 137.58 38.07 137.31 37.44C135.708 33.9486 133.905 30.5529 131.91 27.27L129.39 28.08L132.99 30.69C133.53 31.05 135.42 30.6 135.51 29.88C135.573 29.0569 135.405 28.2326 135.023 27.5007C134.641 26.7688 134.061 26.1588 133.35 25.74C132.654 25.3198 131.876 25.0541 131.069 24.961C130.261 24.8678 129.443 24.9493 128.67 25.2C128.4 25.29 127.41 25.56 127.5 26.01C127.59 26.46 128.67 26.19 128.94 26.1C129.21 26.01 131.19 26.73 131.82 27.45C132.208 27.8717 132.505 28.3694 132.691 28.9116C132.877 29.4539 132.948 30.0288 132.9 30.6L135.42 29.79L131.82 27.18C131.37 26.91 128.94 27.45 129.3 27.99C131.295 31.2729 133.098 34.6686 134.7 38.16L137.22 37.35C135.391 35.9415 133.809 34.2382 132.54 32.31C132.09 31.77 129.66 32.49 129.93 33.03L134.25 42.57L136.68 41.67C134.812 41.1456 133.109 40.1545 131.73 38.79C131.28 38.43 128.94 39.06 129.12 39.6L134.07 50.49L136.59 49.68L132.9 45.81C132.45 45.36 130.02 46.08 130.38 46.62C132.026 49.5813 133.239 52.7639 133.98 56.07L136.5 55.26L132 51.93C131.46 51.57 129.12 52.38 129.57 52.92C132.289 55.3837 134.123 58.6723 134.79 62.28L137.31 61.47L131.55 57.51C131.1 57.15 128.67 57.78 129.03 58.32C130.949 61.4066 132.518 64.6967 133.71 68.13L136.23 67.32L130.11 63.36C129.57 63 127.14 63.63 127.68 64.26C130.502 67.8761 132.361 72.1496 133.08 76.68L135.6 75.87L131.01 72.18C130.56 71.82 128.13 72.54 128.49 72.99C130.939 76.6541 132.764 80.699 133.89 84.96L136.41 84.15C135.235 83.1039 133.749 82.4717 132.18 82.35C131.91 82.35 129.57 82.8 130.11 83.43C132.119 85.5597 133.491 88.21 134.07 91.08L136.59 90.27C135.364 88.5945 133.838 87.1604 132.09 86.04C131.64 85.68 129.12 86.4 129.66 86.94C131.96 89.5034 133.516 92.6466 134.16 96.03L136.68 95.22L131.28 90.45C130.74 90 128.31 90.9 128.76 91.44C131.722 94.4993 133.751 98.3392 134.61 102.51L137.13 101.7L132.45 97.38C132 96.84 129.57 97.83 130.02 98.28C131.211 99.4865 132.144 100.922 132.763 102.5C133.381 104.078 133.673 105.766 133.62 107.46L136.14 106.65L132.36 104.76C131.91 104.58 129.39 104.94 129.93 105.66C132.239 108.79 133.64 112.496 133.98 116.37L136.5 115.56C134.815 114.372 133.04 113.319 131.19 112.41C130.83 112.23 128.31 112.68 128.67 113.22C130.635 116.1 132.294 119.176 133.62 122.4L135.15 121.5C133.922 121.632 132.686 121.347 131.64 120.69C131.28 120.51 128.76 120.96 129.12 121.5C131.105 124.364 131.999 127.844 131.64 131.31L133.8 130.41C132.409 130.33 131.069 129.862 129.93 129.06C129.39 128.61 127.41 129.06 127.41 129.87C127.41 130.68 129.48 132.57 129.57 134.28C129.57 137.52 125.79 133.92 125.07 133.11C124.35 132.3 122.28 133.29 122.55 133.92C122.753 134.506 122.903 135.108 123 135.72C123.045 136.109 123.045 136.501 123 136.89L122.82 137.34C122.64 137.61 122.64 137.61 122.82 137.43C123 137.25 123 137.16 122.55 137.16L121.83 136.98L120.48 136.44C119.444 136.1 118.448 135.647 117.51 135.09C116.88 134.73 115.26 135.09 114.99 135.72C113.46 139.05 109.41 135.72 107.61 134.37C105.81 133.02 105.63 134.46 105.18 134.91C104.663 135.575 103.952 136.062 103.146 136.304C102.339 136.546 101.477 136.531 100.68 136.26C99.15 135.72 97.8899 134.82 96.0899 135.18C95.3773 135.347 94.7045 135.653 94.11 136.08C94.02 136.17 93.03 137.16 93.66 136.98L92.67 136.71C91.41 136.35 90.2399 135.63 88.9799 135.63C88.1825 135.566 87.3812 135.689 86.6399 135.99C86.0099 136.17 85.4699 136.89 84.8399 137.07C84.2099 137.25 84.6599 136.71 84.3899 136.62L83.4899 135.99C82.986 135.676 82.4408 135.434 81.87 135.27C81.18 135.064 80.4502 135.03 79.7443 135.172C79.0383 135.313 78.3776 135.625 77.82 136.08C77.19 136.53 76.7399 137.43 75.8399 137.16C74.8302 136.811 73.8868 136.294 73.05 135.63C72.42 135.18 70.17 136.26 70.62 136.53Z" fill="#012B27"/>
<path d="M111.39 136.98H120.66C122.197 136.687 123.682 136.171 125.07 135.45C126.721 134.498 128.146 133.202 129.249 131.648C130.352 130.095 131.106 128.322 131.46 126.45C131.594 125.918 131.684 125.376 131.73 124.83V123.39C131.73 122.49 131.82 121.59 131.82 120.69V115.02C131.91 111.15 131.91 106.92 132 102.51C132 93.6001 132.09 83.7901 132.18 73.4401C132.27 63.0901 132.27 52.2001 132.27 41.0401V28.1701C132.091 26.2809 131.541 24.4457 130.65 22.7701C129.745 21.1165 128.512 19.665 127.026 18.5044C125.541 17.3438 123.834 16.4984 122.01 16.0201C121.541 15.8788 121.059 15.7883 120.57 15.7501L119.22 15.5701H112.74L80.0703 15.8401H67.4703L66.2103 16.0201C64.2837 16.3519 62.4571 17.1153 60.8674 18.253C59.2776 19.3908 57.9658 20.8735 57.0303 22.5901C56.2924 23.9708 55.7761 25.459 55.5003 27.0001V28.0801C55.426 28.435 55.3958 28.7977 55.4103 29.1601V30.8701C55.8603 49.0501 56.5803 55.0801 57.3903 52.1101C57.8403 50.5801 58.2003 46.8901 58.6503 41.3101C58.8303 38.5201 59.1003 35.2801 59.2803 31.5901C59.2656 31.1382 59.2958 30.686 59.3703 30.2401V28.8901C59.4418 28.0214 59.6546 27.1702 60.0003 26.3701C60.7262 24.7187 61.9139 23.3123 63.4203 22.3201C64.2348 21.8589 65.1149 21.5251 66.0303 21.3301L67.3803 21.0601H69.0003L76.4703 21.3301L92.8503 21.7801L110.85 22.1401H118.95L119.76 22.3201C120.844 22.5317 121.86 23.0024 122.722 23.692C123.584 24.3816 124.266 25.2696 124.71 26.2801C124.902 26.8077 125.052 27.3493 125.16 27.9001C125.16 28.1701 125.25 28.4401 125.25 28.8001V34.8301C125.25 38.2501 125.25 41.6701 125.16 45.1801C125.25 52.1101 125.25 59.2201 125.25 66.3301C125.34 80.6401 125.52 95.2201 125.88 109.8L126.15 120.33V125.01C125.961 126.222 125.533 127.385 124.89 128.43C124.183 129.424 123.298 130.278 122.28 130.95C121.251 131.507 120.117 131.844 118.95 131.94H110.58L82.2303 132.39H67.5603L66.5703 132.21C65.2906 132.002 64.0837 131.476 63.0603 130.68C61.2216 129.257 59.9719 127.206 59.5503 124.92C59.473 124.384 59.4429 123.842 59.4603 123.3V118.8C59.6403 102.06 59.6403 95.4901 58.4703 77.9401C57.3003 60.3901 56.4003 86.6701 55.7703 117.36C55.7703 119.34 55.6803 121.23 55.6803 123.21V124.83C55.6958 125.434 55.756 126.035 55.8603 126.63C56.1458 127.815 56.5686 128.963 57.1203 130.05C57.6751 131.1 58.3716 132.069 59.1903 132.93C60.0275 133.825 60.9992 134.584 62.0703 135.18C63.6285 136.117 65.3864 136.672 67.2003 136.8H111.39V136.98Z" fill="#012B27"/>
<path d="M96.9003 121.68C96.8649 120.478 96.4761 119.313 95.7825 118.33C95.0889 117.348 94.1212 116.592 93.0003 116.156C91.8793 115.72 90.6549 115.624 89.4798 115.88C88.3047 116.136 87.2312 116.733 86.3932 117.596C85.5552 118.458 84.9899 119.549 84.768 120.731C84.5461 121.913 84.6774 123.134 85.1454 124.242C85.6134 125.35 86.3975 126.295 87.3996 126.96C88.4018 127.625 89.5776 127.979 90.7803 127.98C91.5958 127.968 92.4011 127.796 93.15 127.473C93.8989 127.15 94.5769 126.683 95.1453 126.098C95.7136 125.513 96.1611 124.821 96.4622 124.063C96.7633 123.305 96.9122 122.496 96.9003 121.68Z" fill="#BFF007"/>
<path d="M88.3499 126L87.9899 125.73C87.6463 125.409 87.3439 125.046 87.0899 124.65C86.626 124.025 86.3323 123.289 86.2377 122.516C86.143 121.743 86.2506 120.959 86.5499 120.24C86.855 119.375 87.4125 118.62 88.1505 118.075C88.8885 117.53 89.773 117.218 90.6899 117.18C91.5912 117.181 92.4757 117.424 93.2514 117.883C94.027 118.342 94.6653 119 95.0999 119.79C95.4068 120.311 95.6775 120.852 95.9099 121.41C96.1799 121.68 96.3599 121.77 96.5399 121.68C96.86 121.306 97.0215 120.821 96.9899 120.33C97.0865 119.367 96.8987 118.397 96.4499 117.54C95.8009 116.259 94.7606 115.219 93.4799 114.57C91.8233 113.767 89.9198 113.638 88.1699 114.21C87.1837 114.543 86.276 115.075 85.5022 115.771C84.7284 116.467 84.105 117.314 83.6699 118.26C83.2263 119.219 82.9966 120.263 82.9966 121.32C82.9966 122.377 83.2263 123.421 83.6699 124.38C84.4248 125.977 85.692 127.276 87.2699 128.07C88.4184 128.621 89.6886 128.869 90.9599 128.79C92.5353 128.696 94.0298 128.06 95.1899 126.99C95.8409 126.416 96.3624 125.711 96.7199 124.92C97.0237 124.112 97.0553 123.227 96.8099 122.4C96.5399 121.32 96.2699 121.68 95.9999 122.49C95.6558 123.683 94.967 124.747 94.0199 125.55C93.4918 125.97 92.8861 126.281 92.2375 126.466C91.5888 126.652 90.91 126.707 90.2399 126.63C89.5763 126.539 88.9354 126.325 88.3499 126Z" fill="#012B27"/>
<path d="M78.6298 29.7C87.7839 29.324 96.9527 29.5344 106.08 30.33C106.409 30.3406 106.735 30.2727 107.033 30.1318C107.33 29.991 107.59 29.7812 107.79 29.52C108.06 28.98 107.61 28.62 107.07 28.62C97.702 27.8254 88.2938 27.615 78.8998 27.99C77.5498 27.99 76.8298 29.7 78.6298 29.7Z" fill="#012B27"/>
<path d="M64.5002 74.0699C65.6939 74.0818 66.8783 73.8584 67.9857 73.4126C69.0931 72.9667 70.1018 72.307 70.9543 71.4713C71.8067 70.6356 72.4862 69.6401 72.9539 68.5418C73.4216 67.4434 73.6684 66.2637 73.6802 65.0699V60.2099C73.8084 58.6151 73.5618 57.0125 72.9602 55.5299C71.3402 52.1999 68.0102 50.9399 64.5902 50.9399H10.1402C5.82018 51.0299 1.50018 53.9999 0.87018 58.4099C0.750325 59.6963 0.720252 60.9894 0.780179 62.2799V66.1499C0.870179 71.0999 4.83018 74.0699 9.51018 74.0699H64.5002C65.6702 74.0699 67.2902 73.2599 67.4702 71.9999C67.6502 70.7399 66.0302 70.4699 65.0402 70.4699H18.8702C15.9002 70.4699 12.9302 70.5599 9.96018 70.4699C10.5902 70.4699 9.96018 70.4699 9.69018 70.3799C9.20888 70.2449 8.75287 70.0321 8.34018 69.7499C7.50426 69.2003 6.84731 68.4182 6.45018 67.4999C6.10306 66.3028 5.981 65.0516 6.09018 63.8099C6.09018 61.2899 5.37018 57.1499 7.53018 55.2599L8.43018 54.7199C8.16018 54.8999 8.97018 54.6299 8.52018 54.7199H64.5002C63.6002 54.7199 64.6802 54.7199 64.7702 54.8099C65.2809 54.8941 65.7701 55.0776 66.2102 55.3499C66.8923 55.8484 67.4502 56.4975 67.8405 57.2468C68.2308 57.996 68.4428 58.8253 68.4602 59.6699V63.8999C68.5352 65.1628 68.4749 66.43 68.2802 67.6799C68.0263 68.5054 67.5609 69.25 66.9302 69.8399L66.0302 70.3799C66.3902 70.1099 65.5802 70.3799 65.9402 70.3799H65.0402C63.9602 70.3799 62.3402 71.1899 62.1602 72.3599C61.9802 73.5299 63.6002 74.1599 64.5002 74.0699Z" fill="#012B27"/>
<path d="M120.3 29.97L120.571 42.12C120.841 51.21 121.02 60.39 121.11 69.57C121.2 78.75 121.471 89.37 121.651 99.27C121.741 105.48 121.921 111.69 121.741 117.9C121.633 120.524 120.756 123.059 119.221 125.19C118.656 126.047 117.788 126.658 116.791 126.9C115.361 127.139 113.918 127.289 112.47 127.35C109.59 127.62 106.8 127.71 103.92 127.8H102.39C101.49 127.8 100.23 128.07 99.7805 128.88C99.3305 129.69 100.14 130.14 100.86 130.14C106.004 130.082 111.142 129.752 116.25 129.15C117.892 128.901 119.447 128.254 120.78 127.266C122.114 126.277 123.185 124.978 123.901 123.48C124.696 121.948 125.272 120.312 125.61 118.62C125.73 116.913 125.761 115.2 125.701 113.49C125.701 110.07 125.61 106.65 125.61 103.14C125.52 93.33 125.34 83.52 125.16 73.71L124.621 44.37L124.351 34.2C124.456 32.5203 124.425 30.8348 124.26 29.16V28.89C124.26 27.63 120.3 28.35 120.3 29.97Z" fill="#012B27"/>
<path d="M18.51 60.8401C18.87 60.3001 19.59 60.9301 20.13 61.1101C21.0056 61.4974 21.9748 61.6225 22.92 61.4701C23.6274 61.3348 24.3006 61.0594 24.9 60.6601C25.71 60.3001 25.98 60.7501 26.61 61.2001C27.215 61.6399 27.9475 61.8692 28.6952 61.8529C29.4429 61.8366 30.1647 61.5757 30.75 61.1101C31.2 60.8401 31.74 60.1201 32.28 60.0301C32.82 59.9401 33.9 60.5701 34.62 60.6601C35.3896 60.8404 36.1904 60.8404 36.96 60.6601C37.77 60.3901 38.4 59.7601 39.12 59.5801C39.9238 59.554 40.7233 59.7077 41.46 60.0301C42.2949 60.3327 43.1844 60.4554 44.07 60.3901C44.8858 60.2872 45.6775 60.0436 46.41 59.6701C46.8299 59.4989 47.2835 59.426 47.7359 59.4572C48.1883 59.4884 48.6276 59.6228 49.02 59.8501C50.5966 60.6722 52.4081 60.9265 54.15 60.5701C55.0868 60.2651 56.0515 60.0541 57.03 59.9401C58.0153 60.0104 58.9854 60.2226 59.91 60.5701C61.89 61.1101 63.6 61.2001 65.4 60.1201C65.5061 60.0587 65.5968 59.974 65.6653 59.8724C65.7339 59.7709 65.7785 59.6551 65.7958 59.5338C65.8132 59.4125 65.8027 59.2888 65.7654 59.1721C65.728 59.0554 65.6646 58.9488 65.58 58.8601C65.2735 58.7371 64.942 58.6893 64.6132 58.7206C64.2844 58.752 63.9678 58.8615 63.69 59.0401C62.97 59.4901 61.98 59.1301 61.26 58.8601L58.83 58.2301C56.85 57.9601 55.23 58.8601 53.34 58.9501C51.45 59.0401 50.01 57.6901 48.21 57.6001C47.3181 57.6496 46.4384 57.8316 45.6 58.1401C45.2076 58.3674 44.7683 58.5018 44.3159 58.533C43.8635 58.5642 43.4099 58.4914 42.99 58.3201C41.28 57.8701 39.75 57.4201 38.04 58.1401C36.33 58.8601 36.78 59.0401 36.15 59.0401C35.3283 58.8416 34.5172 58.6013 33.72 58.3201C31.83 57.9601 30.75 58.8601 29.31 59.8501C27.87 60.8401 29.13 60.1201 28.77 59.8501L27.96 59.3101C27.3384 58.8488 26.5722 58.6253 25.8 58.6801C24.9137 58.8297 24.0606 59.1344 23.28 59.5801C22.29 60.0301 21.48 59.3101 20.49 58.9501C19.6701 58.691 18.7863 58.7192 17.9845 59.0301C17.1828 59.341 16.511 59.916 16.08 60.6601C15.36 61.9201 17.97 61.8301 18.51 60.8401Z" fill="#012B27"/>
<path d="M18.69 66.42C18.96 66.06 18.78 65.97 18.24 66.15L18.78 66.51C19.1433 66.7431 19.537 66.9248 19.95 67.05C20.3617 67.1738 20.7969 67.1976 21.2196 67.1193C21.6422 67.0411 22.0401 66.863 22.38 66.6L23.19 65.97C22.65 65.88 22.47 66.06 22.83 66.33L23.19 66.69C23.418 66.9655 23.7084 67.1827 24.0371 67.3235C24.3658 67.4644 24.7233 67.5249 25.08 67.5C25.8671 67.3823 26.5773 66.9626 27.06 66.33C27.3183 66.1013 27.5319 65.8266 27.69 65.52C27.24 65.61 27.15 65.61 27.51 65.7L27.96 65.97C28.6417 66.3585 29.4412 66.4864 30.21 66.33L31.38 65.88L32.1 65.16C32.55 65.07 33.45 65.7 33.99 65.88C34.805 66.1014 35.6736 66.0049 36.42 65.61C36.69 65.52 37.23 64.98 37.5 64.98C37.77 64.98 38.13 65.43 38.31 65.52C38.9695 65.9486 39.7014 66.2536 40.47 66.42C41.3387 66.3485 42.1899 66.1357 42.99 65.79C43.345 65.6566 43.7271 65.6115 44.1033 65.6585C44.4796 65.7056 44.8388 65.8433 45.15 66.06C46.68 66.69 48.21 66.87 49.65 65.7C51.09 64.53 48.93 63.54 47.85 64.44C46.77 65.34 47.04 64.35 46.59 64.17C45.9898 63.8795 45.3546 63.6677 44.7 63.54C44.0644 63.4621 43.4195 63.5235 42.81 63.72C42.18 63.99 41.55 64.44 40.92 64.26C40.29 64.08 39.84 63.54 39.3 63.27C38.7071 63.0071 38.0529 62.9136 37.41 63C36.7649 63.1064 36.1506 63.3521 35.61 63.72C34.98 64.08 34.62 63.63 33.99 63.36C33.4023 63.0909 32.749 62.9986 32.1097 63.0945C31.4705 63.1904 30.8729 63.4703 30.39 63.9L29.85 64.35C29.94 64.35 30.12 64.35 29.85 64.26C29.58 64.17 29.31 63.99 29.13 63.9C28.5371 63.6371 27.8829 63.5436 27.24 63.63C26.7062 63.7905 26.2144 64.0671 25.8 64.44C25.5379 64.6568 25.2968 64.8979 25.08 65.16L24.81 65.52H25.62C25.2763 65.0863 24.8837 64.6937 24.45 64.35C24.1877 64.1767 23.8908 64.0628 23.5799 64.0161C23.269 63.9695 22.9516 63.9913 22.65 64.08C21.9747 64.2961 21.3586 64.6658 20.85 65.16C21.03 64.98 21.21 65.43 20.94 65.07C20.7695 64.8713 20.5533 64.7169 20.31 64.62L19.5 64.26C18.8203 64.0864 18.1002 64.1753 17.4831 64.5089C16.866 64.8425 16.3972 65.3963 16.17 66.06C15.63 67.5 18.24 67.59 18.69 66.42Z" fill="#012B27"/>
<path d="M60.9002 133.65C63.6002 135.27 65.4002 138.06 68.6402 138.69H78.4502C86.3702 138.78 94.2902 138.87 102.21 139.14C106.35 139.23 110.58 139.5 114.81 139.5C119.04 139.5 120.75 139.23 123.72 138.87C125.612 138.668 127.463 138.182 129.21 137.43C134.97 134.46 137.04 127.71 137.31 121.68C137.94 109.8 137.67 97.83 137.67 86.04C137.58 72 137.4 57.96 137.31 43.92C137.22 40.14 137.22 36.45 137.13 32.67V31.86V30.78C137.129 30.022 137.038 29.2668 136.86 28.53C136.279 26.0224 134.887 23.7764 132.9 22.14C131.53 21.1323 130.012 20.343 128.4 19.8L124.8 18.45C124.495 18.3193 124.162 18.2673 123.832 18.2987C123.502 18.3302 123.185 18.4441 122.91 18.63C122.64 18.9 122.1 19.44 122.73 19.71C125.43 20.79 128.76 21.6 131.01 23.58C133.26 25.56 134.52 29.16 134.52 32.67C134.52 36.18 134.61 38.25 134.61 41.04C134.79 54.09 134.88 67.23 134.97 80.28C135.06 93.33 135.15 105.84 134.88 118.53C134.79 123.21 134.61 127.8 132.27 132.03C131.328 133.748 130.004 135.226 128.4 136.35C126.865 137.135 125.174 137.566 123.45 137.61C118.01 138.195 112.527 138.286 107.07 137.88C99.8702 137.61 92.5802 137.52 85.3801 137.43H74.9402C73.4102 137.34 71.7902 137.52 70.1702 137.34C68.5502 137.16 65.4002 133.92 62.9702 132.48C62.1602 132.03 59.8202 133.11 60.9002 133.74V133.65Z" fill="#012B27"/>
<path d="M168.09 60.1201H109.32C105.84 60.1201 103.02 62.9407 103.02 66.4201V76.0231C103.02 79.5025 105.84 82.3231 109.32 82.3231H168.09C171.569 82.3231 174.39 79.5025 174.39 76.0231V66.4201C174.39 62.9407 171.569 60.1201 168.09 60.1201Z" fill="#BFF007"/>
<path d="M107.79 66.33V70.65C107.79 71.19 107.7 72 108.15 72.45C108.6 72.9 108.69 72.6301 108.87 72.7201C109.855 72.84 110.849 72.8701 111.84 72.81C112.667 72.7624 113.469 72.5154 114.18 72.09C114.331 72.0477 114.461 71.9504 114.544 71.8172C114.628 71.684 114.658 71.5246 114.63 71.3701C114.704 71.0151 114.734 70.6524 114.72 70.29C114.902 68.7367 114.992 67.174 114.99 65.6101C114.99 65.5201 114.63 65.4301 114.54 65.4301L110.58 65.2501C109.911 65.2464 109.256 65.4337 108.69 65.7901C108.6 65.8801 108.33 66.0601 108.42 66.1501C108.51 66.2401 108.69 66.4201 108.87 66.4201H112.83L112.38 66.2401C112.38 67.2301 112.29 68.3101 112.29 69.3001C112.29 70.29 112.2 70.29 112.11 70.74V71.4601C112.11 71.5501 112.11 72 112.02 72.09L112.47 71.8201H112.38L113.01 71.55C112.65 71.73 113.28 71.55 113.1 71.55C112.92 71.55 112.92 71.55 112.92 71.64C112.92 71.73 113.1 71.55 112.92 71.55H110.94C111.21 71.55 110.85 71.5501 110.76 71.4601H110.67L110.49 71.19C110.49 70.92 110.4 70.7401 110.4 70.4701V65.6101C110.4 65.1601 107.79 65.5201 107.79 66.33Z" fill="#012B27"/>
<path d="M119.58 69.48C119.562 68.9982 119.592 68.5158 119.67 68.04C119.85 67.5 120.39 67.32 119.58 67.59L118.32 67.77C118.77 67.86 119.31 69.48 119.4 69.84C119.639 70.5136 119.972 71.1499 120.39 71.73C121.29 72.72 123 72.27 123.99 71.73C124.98 71.19 126.06 69.3 126.96 68.04L127.5 67.41C127.59 66.87 126.78 67.59 126.78 67.41L127.41 68.04L128.4 69.75C128.626 70.2052 128.994 70.5744 129.449 70.8017C129.904 71.0291 130.42 71.1022 130.92 71.01C131.525 70.8727 132.094 70.6094 132.59 70.2372C133.087 69.865 133.499 69.3923 133.8 68.85C134.259 68.1523 134.771 67.4904 135.33 66.87C135.42 66.78 135.51 66.69 135.33 66.69L135.78 66.87C136.165 67.0649 136.503 67.3413 136.77 67.68C137.58 68.67 138.3 70.11 139.65 70.2C140.28 70.2426 140.91 70.1342 141.49 69.8837C142.069 69.6333 142.58 69.248 142.98 68.76L144.06 67.32C144.51 66.42 143.07 67.86 143.07 67.41H143.25C143.34 67.59 143.61 67.68 143.79 67.86C143.97 68.04 145.86 71.28 147.84 71.19C148.393 71.1596 148.934 71.0162 149.429 70.7685C149.925 70.5208 150.364 70.1742 150.72 69.75L151.71 68.31L152.16 67.5L152.43 67.14L152.61 66.96L151.53 67.32L152.34 67.95L153.15 69.12C153.58 69.7584 154.061 70.3605 154.59 70.92C155.009 71.2118 155.491 71.4005 155.996 71.4707C156.502 71.5408 157.017 71.4905 157.5 71.3238C157.982 71.1571 158.419 70.8788 158.773 70.5114C159.128 70.1441 159.39 69.6981 159.54 69.21L160.08 68.04C160.158 67.9296 160.218 67.8083 160.26 67.68C160.53 67.32 160.35 67.41 159.54 67.77C158.73 68.13 158.55 67.86 158.91 68.04L159.45 68.76C159.682 69.0587 159.864 69.393 159.99 69.75C160.297 70.3233 160.659 70.8657 161.07 71.37C161.97 72.54 163.5 72.36 164.76 71.73C165.308 71.4702 165.775 71.0656 166.11 70.56C166.56 69.84 166.74 68.76 167.46 68.22L166.02 68.85H165.21L165.39 69.03C165.84 69.66 168.18 68.58 168 68.31C167.82 68.04 165.39 68.04 164.76 68.76C164.377 69.3606 164.046 69.9929 163.77 70.65C163.86 70.65 163.41 71.28 163.41 71.28H163.77C164.22 71.28 164.31 71.19 163.95 71.1C163.59 71.01 163.41 70.47 163.23 70.2C163.05 69.93 162.24 67.77 161.25 67.14C160.26 66.51 158.73 67.14 158.01 67.86C157.605 68.3346 157.299 68.8854 157.11 69.48L156.66 70.56H157.11C157.56 70.65 157.65 70.56 157.38 70.47C157.11 70.38 156.93 70.11 156.75 69.93C156.57 69.75 155.13 66.87 153.69 66.42C153.048 66.2704 152.378 66.2914 151.746 66.4808C151.115 66.6703 150.544 67.0216 150.09 67.5C149.71 67.9433 149.378 68.426 149.1 68.94L148.56 69.75L148.29 70.2L148.11 70.38C147.75 70.74 148.11 70.74 149.1 70.29C150.09 69.84 148.38 69.75 148.2 69.48C147.792 69.0707 147.43 68.618 147.12 68.13C146.58 67.5 145.95 66.6 145.05 66.42C144.463 66.3401 143.866 66.396 143.304 66.5832C142.743 66.7705 142.231 67.0841 141.81 67.5C141.312 67.9982 140.86 68.5404 140.46 69.12L140.19 69.39C140.1 69.84 141.18 69.39 141.09 69.03C141 68.67 140.46 68.4 140.28 68.13C140.1 67.86 138.48 65.7 136.86 65.7C136.094 65.6607 135.329 65.7848 134.616 66.0642C133.902 66.3435 133.256 66.7716 132.72 67.32C132.219 67.9437 131.767 68.6057 131.37 69.3C131.19 69.48 130.65 70.02 130.65 70.2C130.65 70.38 131.82 69.66 131.82 70.02L131.46 69.75C130.56 68.85 130.38 67.41 129.3 66.69C128.22 65.97 126.15 66.69 125.25 67.59C124.572 68.3389 123.969 69.1528 123.45 70.02C123.033 70.4776 122.643 70.9584 122.28 71.46L122.64 71.28C123.12 71.28 123.21 71.19 122.91 71.01C122.82 70.74 122.55 70.47 122.46 70.2C122.37 69.93 121.47 66.51 119.4 66.78C117.33 67.05 116.88 68.49 116.97 70.29C117.06 72.09 119.67 70.29 119.58 69.57V69.48Z" fill="#012B27"/>
<path d="M106.17 139.23C107.79 143.1 109.23 147.06 110.67 151.11C110.94 152.01 113.55 151.29 113.28 150.39C111.84 146.34 110.4 142.38 108.78 138.51C108.42 137.61 105.81 138.33 106.17 139.23Z" fill="#012B27"/>
<path d="M85.3801 139.59L85.7401 153.36C85.7401 153.99 88.3501 153.54 88.3501 152.64L87.9901 138.87C87.9901 138.24 85.3801 138.69 85.3801 139.59Z" fill="#012B27"/>
<path d="M67.2003 175.41L67.6503 175.68C67.9574 176.014 68.3235 176.289 68.7303 176.49C70.1053 177.312 71.639 177.834 73.2303 178.02C75.4708 178.349 77.7493 178.318 79.9803 177.93L83.8503 177.21L87.9003 176.13C89.4025 175.653 90.8504 175.02 92.2203 174.24L94.2003 172.8L95.2803 171.72C95.6345 171.172 95.879 170.561 96.0003 169.92C96.0455 169.411 96.0455 168.899 96.0003 168.39V167.22L95.7303 164.88C95.5478 163.336 95.2774 161.804 94.9203 160.29C94.656 158.769 94.2952 157.266 93.8403 155.79C93.7614 155.418 93.6407 155.055 93.4803 154.71C93.3903 154.26 93.2103 153.81 93.1203 153.45C93.0303 153.09 92.6703 152.1 92.4003 151.47H90.4203L87.9903 151.74L86.0103 151.92L82.1403 152.28C81.6652 152.287 81.1983 152.405 80.7765 152.623C80.3548 152.842 79.9897 153.156 79.7103 153.54C79.3825 154.244 79.3186 155.043 79.5303 155.79C79.6615 156.433 79.842 157.065 80.0703 157.68C80.3403 158.49 80.5203 158.67 80.7003 158.31C80.9319 157.338 81.0229 156.338 80.9703 155.34C80.9703 155.07 80.9703 154.71 81.2403 154.53C81.3771 154.418 81.536 154.336 81.7065 154.29C81.8771 154.243 82.0555 154.233 82.2303 154.26H90.3303V154.53L90.6003 155.52C91.3471 158.727 91.9179 161.971 92.3103 165.24C92.4003 166.14 92.4003 167.04 92.4903 167.85C92.5556 168.237 92.5857 168.628 92.5803 169.02V169.29H92.4003L91.7703 169.92L90.6903 170.73C89.9797 171.192 89.2262 171.584 88.4403 171.9C86.7392 172.608 84.9959 173.209 83.2203 173.7C81.3303 174.15 79.4403 174.6 77.6403 174.87C75.941 175.141 74.2095 175.141 72.5103 174.87C71.1209 174.704 69.8087 174.142 68.7303 173.25C67.9785 172.337 67.5652 171.193 67.5603 170.01C67.4188 168.953 67.5109 167.878 67.8303 166.86C68.2068 165.164 69.0482 163.606 70.2603 162.36C71.121 161.438 72.1627 160.702 73.3203 160.2C74.8847 159.542 76.5743 159.235 78.2703 159.3L80.7003 159.57C81.698 159.778 82.6656 160.111 83.5803 160.56L84.7503 161.19H85.0203C85.0203 161.01 84.5703 160.38 83.5803 159.66C82.2873 158.737 80.816 158.093 79.2603 157.77C77.0352 157.341 74.7333 157.573 72.6383 158.437C70.5433 159.3 68.7468 160.758 67.4703 162.63C66.2711 164.402 65.529 166.442 65.3103 168.57C65.1812 170.194 65.4275 171.826 66.0303 173.34C66.2697 173.779 66.5404 174.2 66.8403 174.6L67.2003 175.41Z" fill="#012B27"/>
<path d="M129.03 170.28L128.76 170.55L127.95 171.36C126.865 172.21 125.649 172.879 124.35 173.34C122.266 174.048 120.067 174.353 117.87 174.24C115.125 174.191 112.4 173.767 109.77 172.98C108.38 172.548 107.049 171.944 105.81 171.18L105 170.64L104.82 170.37C104.73 170.28 104.73 170.1 104.73 169.74V168.57C104.818 165.306 105.179 162.054 105.81 158.85C106.074 157.24 106.435 155.647 106.89 154.08H106.98L109.41 153.72C110.963 153.466 112.497 153.105 114 152.64L116.16 152.01L116.7 151.83H117.15C117.24 151.83 117.33 152.01 117.33 152.1C117.33 152.19 117.42 152.1 117.42 152.19V152.37L117.6 152.64C117.69 152.82 117.69 153.09 117.78 153.27C118.006 153.855 118.186 154.457 118.32 155.07C118.59 156.06 118.77 156.42 118.95 156.33C119.13 156.24 119.31 155.61 119.31 154.44C119.31 153.27 119.22 153.27 119.13 152.46C119.04 151.65 119.04 151.74 118.86 151.11C118.68 150.48 118.59 150.03 118.32 149.4L117.06 149.67L115.8 150.03L113.73 150.39L108.78 151.11L107.52 151.29H105.72L104.46 151.47L104.1 152.64L103.56 154.44C102.945 156.513 102.434 158.616 102.03 160.74C101.647 163.033 101.407 165.348 101.31 167.67C101.235 168.237 101.205 168.809 101.22 169.38C101.141 170.207 101.265 171.041 101.58 171.81C101.775 172.301 102.048 172.757 102.39 173.16C102.691 173.438 103.023 173.679 103.38 173.88C103.916 174.292 104.488 174.654 105.09 174.96C107.445 176.102 109.966 176.861 112.56 177.21C115.123 177.601 117.728 177.631 120.3 177.3C124.89 176.76 128.85 174.78 131.01 171.81C131.968 170.588 132.67 169.184 133.072 167.684C133.474 166.184 133.569 164.618 133.35 163.08C133.106 161.869 132.649 160.711 132 159.66C131.367 158.828 130.607 158.099 129.75 157.5C128.404 156.651 126.907 156.07 125.34 155.79C123.243 155.48 121.101 155.728 119.13 156.51C117.165 157.354 115.366 158.542 113.82 160.02C112.83 161.01 112.56 161.46 112.83 161.46C113.488 161.152 114.12 160.79 114.72 160.38C116.023 159.546 117.411 158.852 118.86 158.31C120.725 157.608 122.73 157.361 124.71 157.59C126.745 157.811 128.616 158.81 129.93 160.38C130.487 161.084 130.895 161.894 131.127 162.76C131.359 163.627 131.411 164.532 131.28 165.42C131.111 166.764 130.651 168.054 129.93 169.2L129.3 170.19L129.03 170.28Z" fill="#012B27"/>
<path d="M27.7801 72.0902C27.8701 74.6101 27.8701 77.3102 29.3101 79.5602C30.7501 81.8102 33.4501 82.5301 35.9701 82.9801C42.9001 84.2401 49.9201 85.3201 56.9401 86.4901C58.1101 86.6701 59.5501 85.0501 57.8401 84.7801L39.0301 81.5401C36.5101 81.1801 33.6301 80.9101 32.0101 78.8401C30.3901 76.7701 30.4801 74.1602 30.3901 71.9102C30.3001 69.6602 27.7801 71.0102 27.7801 72.0902Z" fill="#012B27"/>
<path d="M150.18 82.53C149.73 84.6 149.37 86.67 149.01 88.74C148.92 89.01 148.92 89.28 148.83 89.46C148.819 89.5196 148.797 89.5765 148.763 89.6272C148.73 89.6779 148.687 89.7214 148.637 89.755C148.586 89.7886 148.53 89.8117 148.47 89.8229C148.41 89.834 148.349 89.8331 148.29 89.82C147.812 90.0636 147.293 90.2162 146.76 90.27L143.88 90.99C139.724 91.7375 135.49 91.9492 131.28 91.62C130.616 91.5303 129.942 91.6907 129.39 92.07C129.03 92.43 129.03 92.79 129.57 92.79C134.721 93.2265 139.908 92.8928 144.96 91.8L148.56 90.9C149.46 90.63 150.72 90.36 151.17 89.55C151.62 88.74 151.8 87.12 151.98 86.04L152.79 82.08C152.88 81.36 150.27 81.72 150.18 82.53Z" fill="#012B27"/>
<path d="M68.1001 51.0299C67.2001 49.2299 68.3701 47.1599 69.5401 45.8099C70.7101 44.4599 72.6001 43.2899 74.5801 43.4699C76.5601 43.6499 78.0901 45.3599 79.1701 46.9799C80.2485 48.7164 80.8679 50.6984 80.9701 52.7399C81.0601 53.8199 83.6701 53.2799 83.5801 52.1099C83.4182 49.4944 82.4779 46.987 80.8801 44.9099C80.1209 43.843 79.1035 42.9861 77.9229 42.4194C76.7424 41.8528 75.4374 41.5949 74.1301 41.6699C72.7988 41.7867 71.5053 42.1742 70.3291 42.8087C69.1529 43.4432 68.1187 44.3114 67.2901 45.3599C65.6701 47.2499 64.5001 49.7699 65.7601 52.1099C67.0201 54.4499 68.7301 52.1999 68.1001 51.0299Z" fill="#012B27"/>
<path d="M98.1603 51.8401C97.941 49.4607 98.5446 47.0781 99.8703 45.0901C100.95 43.5601 102.75 42.3901 104.64 43.0201C106.53 43.6501 107.88 45.5401 108.87 47.3401C109.86 49.1401 111.3 51.7501 111.48 54.1801C111.57 54.9001 114.18 54.3601 114.09 53.4601C113.91 51.1201 112.74 48.9601 111.66 46.8901C110.826 45.1558 109.593 43.6443 108.06 42.4801C104.46 40.2301 99.3303 42.1201 97.1703 45.5401C95.9222 47.6582 95.3565 50.1093 95.5503 52.5601C95.6403 53.2801 98.2503 52.8301 98.1603 51.8401Z" fill="#012B27"/>
<path d="M80.4298 49.7701C80.4298 46.2601 79.0798 43.3801 77.3698 43.3801C75.6598 43.3801 74.2198 46.2601 74.2198 49.7701C74.2198 53.2801 75.5698 56.1601 77.3698 56.1601C79.1698 56.1601 80.4298 53.2801 80.4298 49.7701Z" fill="#012B27"/>
<path d="M77.3698 56.6102C75.2998 56.6102 73.7698 53.5502 73.7698 49.7702C73.7698 45.9902 75.2998 42.9302 77.3698 42.9302C79.4398 42.9302 80.8798 45.9902 80.8798 49.7702C80.8798 53.5502 79.3498 56.6102 77.3698 56.6102ZM77.3698 43.8302C76.0198 43.8302 74.6698 46.2602 74.6698 49.7702C74.6698 53.2802 76.0198 55.7102 77.3698 55.7102C78.7198 55.7102 79.9798 53.2802 79.9798 49.7702C79.9798 46.2602 78.6298 43.8302 77.3698 43.8302Z" fill="#012B27"/>
<path d="M107.97 49.7701C107.97 46.2601 106.53 43.3801 104.82 43.3801C103.11 43.3801 101.67 46.2601 101.67 49.7701C101.67 53.2801 103.11 56.1601 104.82 56.1601C106.53 56.1601 107.97 53.2801 107.97 49.7701Z" fill="#012B27"/>
<path d="M104.82 56.6102C102.84 56.6102 101.22 53.5502 101.22 49.7702C101.22 45.9902 102.84 42.9302 104.82 42.9302C106.8 42.9302 108.42 45.9902 108.42 49.7702C108.42 53.5502 106.8 56.6102 104.82 56.6102ZM104.82 43.8302C103.56 43.8302 102.12 46.2602 102.12 49.7702C102.12 53.2802 103.56 55.7102 104.82 55.7102C106.08 55.7102 107.52 53.2802 107.52 49.7702C107.52 46.2602 106.08 43.8302 104.82 43.8302Z" fill="#012B27"/>
<path d="M107.97 47.5201C107.97 45.1801 107.07 43.3801 105.99 43.3801C104.91 43.3801 103.92 45.1801 103.92 47.5201C103.92 49.8601 104.82 51.5701 105.99 51.5701C107.16 51.5701 107.97 49.7701 107.97 47.5201Z" fill="white"/>
<path d="M80.1603 48.69C80.1603 46.44 79.1703 44.55 78.0903 44.55C77.0103 44.55 76.1103 46.44 76.1103 48.69C76.1103 50.94 77.0103 52.8301 78.0903 52.8301C79.1703 52.8301 80.1603 50.94 80.1603 48.69Z" fill="white"/>
<path d="M76.4702 96.12C78.9902 101.61 85.2002 104.4 91.0502 103.86C94.221 103.448 97.2585 102.328 99.938 100.583C102.617 98.8379 104.87 96.513 106.53 93.78C106.8 93.42 105.63 93.51 105.45 93.51C104.876 93.58 104.34 93.8324 103.92 94.23C101.22 98.64 96.6302 102.69 91.1402 102.78C88.6473 102.825 86.1925 102.164 84.0588 100.874C81.9251 99.5845 80.1992 97.718 79.0802 95.49C78.8102 94.86 76.2902 95.67 76.4702 96.12Z" fill="#012B27"/>
<path d="M6.44981 58.7702V64.6202C6.44981 65.2502 6.26981 66.4202 6.80981 66.9602C7.11191 67.1318 7.45237 67.2247 7.79981 67.2301C9.04912 67.4397 10.3219 67.4701 11.5798 67.3202C12.4568 67.3048 13.3187 67.0893 14.0998 66.6901C14.2871 66.5844 14.4386 66.4251 14.5348 66.2327C14.631 66.0402 14.6676 65.8235 14.6398 65.6102C14.7173 65.1343 14.7475 64.6519 14.7298 64.1702C14.9098 62.1902 14.9998 60.1202 15.0898 58.0502L14.6398 57.8702C12.8398 57.6902 11.1298 57.7802 9.32981 57.6902C8.69441 57.6058 8.05074 57.7667 7.52981 58.1402C7.07981 58.4102 7.16981 58.7702 7.61981 58.7702C9.41981 58.8602 11.2198 58.7702 12.9298 58.9502L12.4798 58.7702C12.4798 60.1202 12.3898 61.4702 12.2998 62.8202C12.2886 63.4837 12.2284 64.1455 12.1198 64.8002V65.7901C12.0298 65.9701 12.1198 66.5101 11.9398 66.6901L12.3898 66.4202C12.8398 66.2402 13.0198 66.2401 12.7498 66.2401H9.32981C9.10096 65.8294 9.00654 65.3573 9.05981 64.8902C9.01476 64.1709 9.01476 63.4494 9.05981 62.7301V58.2301C9.05981 57.7801 6.44981 58.1402 6.44981 58.9502V58.7702Z" fill="#012B27"/>
<path d="M135.78 15.48C135.78 14.5491 135.41 13.6564 134.752 12.9981C134.093 12.3399 133.201 11.97 132.27 11.97C131.755 11.888 131.229 11.9184 130.728 12.0593C130.227 12.2002 129.762 12.4482 129.366 12.7862C128.97 13.1241 128.651 13.544 128.433 14.0169C128.215 14.4897 128.102 15.0043 128.102 15.525C128.102 16.0458 128.215 16.5604 128.433 17.0332C128.651 17.5061 128.97 17.9259 129.366 18.2639C129.762 18.6019 130.227 18.8499 130.728 18.9908C131.229 19.1317 131.755 19.1621 132.27 19.08C132.738 19.0802 133.202 18.9865 133.634 18.8045C134.066 18.6225 134.457 18.3559 134.784 18.0204C135.111 17.6849 135.368 17.2872 135.539 16.8509C135.71 16.4146 135.792 15.9485 135.78 15.48Z" fill="#BFF007"/>
<path d="M31.2899 140.85C34.6699 140.85 37.4099 138.11 37.4099 134.73C37.4099 131.35 34.6699 128.61 31.2899 128.61C27.9099 128.61 25.1699 131.35 25.1699 134.73C25.1699 138.11 27.9099 140.85 31.2899 140.85Z" fill="#BFF007"/>
<path d="M61.4402 11.5199C60.8476 10.6655 60.028 9.99362 59.0738 9.58016C58.1197 9.1667 57.069 9.02808 56.0402 9.17995C55.0502 9.26995 54.1502 9.62995 54.0602 10.7099C53.9702 11.7899 54.6902 12.2399 54.8702 12.9599C55.0503 13.6799 54.9602 13.4999 54.6902 13.6799C54.1235 13.7548 53.5517 13.7849 52.9802 13.7699C52.449 13.8177 51.9363 13.9891 51.4831 14.2704C51.0299 14.5517 50.6488 14.9351 50.3702 15.3899C49.2902 17.6399 51.8102 18.8999 53.7002 18.3599L52.1702 17.6399C51.9902 19.1699 49.9202 19.6199 48.9302 20.6099C48.4739 20.9779 48.1548 21.4887 48.0242 22.0601C47.8936 22.6316 47.9591 23.2303 48.2102 23.7599C48.556 24.2126 49.0246 24.5562 49.5602 24.7499C50.3702 25.1099 50.2802 25.3799 49.6502 26.0099C49.0202 26.6399 46.8602 28.5299 45.4202 29.7899C45.2692 29.9975 45.2046 30.2557 45.2402 30.5099C45.5102 31.4099 46.3202 31.6799 47.1302 31.9499C47.9402 32.2199 47.9402 32.2199 48.1202 32.6699C48.0342 33.4615 47.7217 34.2115 47.2202 34.8299C46.5902 35.8199 45.3302 36.6299 44.9702 37.7999C44.8838 38.0445 44.8573 38.3062 44.893 38.5632C44.9288 38.8201 45.0257 39.0647 45.1756 39.2763C45.3256 39.488 45.5241 39.6606 45.7546 39.7795C45.9851 39.8985 46.2409 39.9604 46.5002 39.9599C46.8334 40.0082 47.1733 39.9571 47.4775 39.813C47.7817 39.6689 48.0366 39.4383 48.2102 39.1499C48.4802 38.6099 47.9402 38.2499 47.4002 38.1599C46.8602 38.0699 48.1202 36.9899 48.2102 36.9899L49.2902 35.6399C49.9995 34.7785 50.4931 33.7603 50.7302 32.6699C50.761 32.2708 50.6753 31.8714 50.4836 31.5199C50.2919 31.1685 50.0024 30.8802 49.6502 30.6899C49.1102 30.4199 48.0302 30.3299 47.8502 29.7899L47.5802 30.5099C49.1102 29.1599 50.7302 27.8999 52.0802 26.4599C53.4302 25.0199 53.2502 24.2099 51.9002 23.3999C50.5502 22.5899 50.7302 23.1299 50.5502 22.4999C50.3702 21.8699 51.3602 21.0599 51.9902 20.6999C52.6202 20.3399 54.6902 19.0799 54.7802 17.3699C54.8702 15.6599 53.7902 16.5599 53.2502 16.7399C52.7102 16.9199 52.7102 15.7499 52.9802 15.5699C53.2502 15.3899 53.9702 15.4799 54.4202 15.4799C55.3644 15.3717 56.2482 14.9613 56.9402 14.3099C57.1946 14.0553 57.3782 13.7388 57.4729 13.3916C57.5676 13.0444 57.5701 12.6784 57.4802 12.3299C57.3002 11.6999 56.4902 10.7999 56.7602 10.1699L55.4102 10.9799C56.1036 10.8578 56.8176 10.947 57.4596 11.2359C58.1016 11.5248 58.6419 12 59.0102 12.5999C59.6402 13.4999 62.1602 12.5999 61.4402 11.5199Z" fill="#BFF007"/>
<path d="M126.87 146.43C128.85 148.05 130.83 148.95 133.35 147.96C133.848 147.817 134.308 147.565 134.697 147.222C135.086 146.88 135.394 146.456 135.6 145.98C135.694 145.454 135.599 144.912 135.33 144.45V144.09C134.43 144 134.25 144 134.79 144.18L135.78 144.45C137.76 144.72 139.83 143.73 139.65 141.57C139.562 141.083 139.442 140.601 139.29 140.13C139.16 139.875 139.069 139.602 139.02 139.32C138.93 138.78 139.38 138.51 138.57 138.78C137.76 139.05 138.21 138.96 138.57 139.05L139.47 139.23L141.09 139.05C141.45 138.96 142.35 138.69 142.35 138.33V136.08C142.471 135.386 142.409 134.673 142.17 134.01C141.81 133.38 139.83 132.93 141.09 131.94C142.35 130.95 142.17 131.58 142.62 131.4C143.058 131.209 143.433 130.896 143.7 130.5C143.816 130.33 143.897 130.138 143.937 129.936C143.978 129.734 143.977 129.526 143.935 129.324C143.893 129.122 143.811 128.931 143.693 128.762C143.575 128.593 143.424 128.449 143.25 128.34C142.71 127.98 142.17 127.98 141.72 127.53C141.535 127.245 141.444 126.91 141.46 126.571C141.476 126.231 141.599 125.906 141.81 125.64C142.35 124.74 143.52 124.2 143.97 123.12C144.042 122.931 144.076 122.73 144.069 122.527C144.063 122.325 144.017 122.126 143.933 121.942C143.849 121.758 143.73 121.592 143.582 121.455C143.434 121.317 143.26 121.21 143.07 121.14C142.578 121.029 142.069 121.019 141.574 121.112C141.079 121.205 140.608 121.398 140.19 121.68L142.53 121.32C141.09 118.62 143.07 116.1 144.78 114.21C145.23 113.76 144.51 113.76 144.24 113.85C143.598 113.837 142.968 114.026 142.44 114.39C140.64 116.46 138.39 119.16 139.92 122.04C140.19 122.58 141.81 121.86 142.17 121.68H142.44L141.18 122.04C140.64 122.13 141 122.22 141.18 122.49L141.45 123.03C141.482 123.521 141.32 124.006 141 124.38C140.37 125.1 139.47 125.64 139.11 126.54C138.908 126.885 138.833 127.291 138.899 127.685C138.965 128.08 139.167 128.439 139.47 128.7C140.19 129.24 141.45 129.24 141.36 130.41C141.27 131.58 137.58 131.58 138.12 133.65C138.66 135.72 139.56 134.37 139.74 135.36C139.875 136.616 139.875 137.884 139.74 139.14L140.91 138.42C141.63 138.24 141.18 138.33 140.91 138.24L140.19 138.06H138.93C138.12 138.15 136.86 138.51 136.5 139.23C136.14 139.95 136.68 141.03 136.95 141.75C137.07 142.19 137.1 142.649 137.04 143.1L136.86 143.73C136.68 144 136.86 144 137.31 143.73C137.76 143.46 137.94 143.55 137.22 143.46C136.5 143.37 132.9 143.1 132.81 144.81C132.72 146.52 133.17 145.8 133.08 146.34C133.064 146.618 133.003 146.891 132.9 147.15L132.45 147.6C132.9 147.6 131.91 147.33 131.73 147.33L131.01 146.88C130.465 146.572 129.953 146.21 129.48 145.8C128.94 145.35 126.69 146.34 126.96 146.61L126.87 146.43Z" fill="#BFF007"/>
<path d="M56.8501 172.89C56.8501 172.89 43.8001 172.35 36.5101 173.52C29.2201 174.69 41.5501 177.48 53.2501 175.77C64.9501 174.06 64.0501 175.32 67.5601 173.88C71.0701 172.44 56.8501 172.89 56.8501 172.89Z" fill="#012B27"/>
<path d="M100.05 170.37L97.6204 170.1C96.2466 169.95 94.8569 170.135 93.5704 170.64C92.4004 171.18 92.9404 172.17 94.1104 172.8C94.8244 173.222 95.6261 173.474 96.4533 173.537C97.2806 173.599 98.1111 173.47 98.8804 173.16C102.48 171.81 102.21 173.16 103.38 171.81C104.55 170.46 103.11 170.82 102.12 170.64C101.443 170.471 100.748 170.38 100.05 170.37Z" fill="#012B27"/>
<path d="M144.69 171L137.13 171.36C132.771 171.679 128.44 172.311 124.17 173.25C120.57 174.24 121.92 175.05 125.61 175.32C130.829 175.574 136.059 175.181 141.18 174.15C144.56 173.381 147.988 172.84 151.44 172.53C152.88 172.536 154.299 172.196 155.58 171.54C157.29 170.82 154.59 170.64 151.44 170.64L144.69 171Z" fill="#012B27"/>
<path d="M140.223 3.74409C130.399 -1.69766 118.318 10.7785 118.318 10.7785C118.318 10.7785 107.83 7.4604 106.9 13.5658C105.971 19.6712 114.866 29.7583 128.939 34.6692C143.011 39.58 136.904 24.4493 136.904 24.4493C136.904 24.4493 150.18 9.18583 140.223 3.74409Z" fill="#BFF007"/>
<path d="M150.852 -4.36228C147.926 -6.07779 137.95 5.6669 137.95 5.6669C137.95 5.6669 153.911 -2.77872 150.852 -4.36228Z" fill="#BFF007"/>
</svg>
