<?xml version="1.0" encoding="UTF-8"?>
<svg width="20px" height="18px" viewBox="0 0 20 18" version="1.1" xmlns="http://www.w3.org/2000/svg" xmlns:xlink="http://www.w3.org/1999/xlink">
    <title>star3</title>
    <g id="Page-1" stroke="none" stroke-width="1" fill="none" fill-rule="evenodd">
        <path d="M19.9493109,6.8012906 C19.8176763,6.42092323 19.4583527,6.15156373 19.0349927,6.11568834 L13.2612335,5.62332064 L10.9793719,0.606499964 C10.8108656,0.237895016 10.4275479,0 10.0008218,0 C9.57425217,0 9.19062136,0.237895016 9.02317185,0.606499964 L6.7413494,5.62332064 L0.966650795,6.11568834 C0.543290845,6.15229888 0.184906627,6.42165838 0.0523326484,6.8012906 C-0.0793019218,7.18151094 0.0422340105,7.59874616 0.362415629,7.86237148 L4.72706257,11.4564535 L3.44011251,16.7790972 C3.34605427,17.1703816 3.50767162,17.5751192 3.85353039,17.8098898 C4.03945493,17.9366667 4.25778904,18 4.476906,18 C4.66529648,18 4.85364782,17.9530606 5.02199759,17.8584098 L10.0008218,15.0628493 L14.9787457,17.8584098 C15.3438623,18.0633333 15.8029981,18.0446605 16.1481131,17.8098898 C16.4939719,17.5751192 16.6557458,17.1703816 16.561531,16.7790972 L15.274581,11.4564535 L19.6392279,7.86237148 C19.959253,7.59874616 20.0809455,7.18235636 19.9493109,6.8012906 Z" id="star3" fill="#FFC1C1"></path>
    </g>
</svg>